<?xml version="1.0" encoding="UTF-8" standalone="no"?>
<svg
   version="1.1"
   width="1080"
   height="1920"
   shape-rendering="crispEdges"
   id="svg276"
   sodipodi:docname="steam_V.svg"
   inkscape:version="1.4.1 (93de688d07, 2025-03-30)"
   xml:space="preserve"
   xmlns:inkscape="http://www.inkscape.org/namespaces/inkscape"
   xmlns:sodipodi="http://sodipodi.sourceforge.net/DTD/sodipodi-0.dtd"
   xmlns:xlink="http://www.w3.org/1999/xlink"
   xmlns="http://www.w3.org/2000/svg"
   xmlns:svg="http://www.w3.org/2000/svg"><defs
     id="defs276"><linearGradient
       id="A"
       x2="32.010761"
       x1="32.010761"
       y2="63.965492"
       y1="0"
       gradientTransform="scale(0.99946079,1.0005395)"
       gradientUnits="userSpaceOnUse"><stop
         stop-color="#111d2e"
         offset="0%"
         id="stop1" /><stop
         stop-color="#051839"
         offset="21.2%"
         id="stop2" /><stop
         stop-color="#0a1b48"
         offset="40.7%"
         id="stop3" /><stop
         stop-color="#132e62"
         offset="58.1%"
         id="stop4" /><stop
         stop-color="#144b7e"
         offset="73.8%"
         id="stop5" /><stop
         stop-color="#136497"
         offset="87.3%"
         id="stop6" /><stop
         stop-color="#1387b8"
         offset="100%"
         id="stop7" /></linearGradient><linearGradient
       id="A-5"
       x2="0.5"
       x1="0.5"
       y2="1"
       y1="0"><stop
         stop-color="#111d2e"
         offset="0%"
         id="stop1-9" /><stop
         stop-color="#051839"
         offset="21.2%"
         id="stop2-2" /><stop
         stop-color="#0a1b48"
         offset="40.7%"
         id="stop3-2" /><stop
         stop-color="#132e62"
         offset="58.1%"
         id="stop4-8" /><stop
         stop-color="#144b7e"
         offset="73.8%"
         id="stop5-9" /><stop
         stop-color="#136497"
         offset="87.3%"
         id="stop6-7" /><stop
         stop-color="#1387b8"
         offset="100%"
         id="stop7-3" /></linearGradient><linearGradient
       inkscape:collect="always"
       xlink:href="#A"
       id="linearGradient685"
       gradientUnits="userSpaceOnUse"
       gradientTransform="scale(0.99946079,1.0005395)"
       x1="32.010761"
       y1="0"
       x2="32.010761"
       y2="63.965492" /></defs><sodipodi:namedview
     id="namedview276"
     pagecolor="#ffffff"
     bordercolor="#000000"
     borderopacity="0.25"
     inkscape:showpageshadow="2"
     inkscape:pageopacity="0.0"
     inkscape:pagecheckerboard="0"
     inkscape:deskcolor="#d1d1d1"
     inkscape:zoom="0.28873527"
     inkscape:cx="244.1683"
     inkscape:cy="1078.8429"
     inkscape:window-width="1536"
     inkscape:window-height="792"
     inkscape:window-x="0"
     inkscape:window-y="0"
     inkscape:window-maximized="1"
     inkscape:current-layer="svg276"
     showguides="false" /><rect
     style="fill:#081125;fill-opacity:1;stroke:none;stroke-width:1.26133;stroke-linecap:round;stroke-linejoin:round;stroke-miterlimit:4.4"
     id="rect786"
     width="1079.832"
     height="1919.832"
     x="0.16795394"
     y="-1920"
     transform="scale(1,-1)" /><g
     id="g680"
     transform="matrix(1.3,0,0,1.3,-1054.3684,427.27044)"><g
       style="shape-rendering:crispEdges"
       id="g2"
       transform="matrix(15.6,0,0,15.6,1070.4372,346.10011)"><g
         id="layer1"
         inkscape:label="boto"><path
           d="M 10,1 V 2 H 9 v 1 h 1 1 V 2 h 1 V 1 H 11 Z M 3,5 v 1 1 1 1 1 1 1 1 h 1 1 1 1 1 1 1 1 1 1 1 1 1 1 V 12 11 10 9 8 7 6 5 H 16 15 14 13 12 11 10 9 8 7 6 5 4 Z m 1,1 h 1 1 1 1 1 1 1 1 v 1 1 1 1 1 1 H 11 10 9 8 7 6 5 4 V 11 10 9 8 7 Z m 9,0 h 1 1 1 v 1 1 1 1 1 1 H 15 14 13 V 11 10 9 8 7 Z m -7,8 v 1 1 1 1 H 5 4 v 1 h 1 1 1 v -1 -1 -1 -1 -1 z m 7,0 v 1 1 1 1 h -1 -1 v 1 h 1 1 1 v -1 -1 -1 -1 -1 z"
           style="fill:#ffffff;fill-opacity:1"
           id="path75"
           inkscape:label="body" /><path
           d="m 5,7 v 1 1 1 1 H 6 V 10 9 8 7 Z m 5,0 v 1 1 1 1 h 1 V 10 9 8 7 Z"
           style="fill:#ffffff;fill-opacity:1"
           id="path76"
           inkscape:label="eyes" /></g></g><path
       d="m 1226.4361,361.69922 v 15.6 h -15.6 v 15.6 15.6 h 15.6 15.6 v -15.6 h 15.6 v -15.6 -15.6 h -15.6 z"
       style="fill:#03a436;fill-opacity:1;stroke-width:0.84;stroke-linecap:round;stroke-linejoin:round;stroke-miterlimit:4.4"
       id="path680" /></g><g
     id="use1"
     transform="matrix(5.7074331,0,0,5.7074331,357.47879,457.36214)"><g
       id="g684"><path
         d="M 1.305,41.202 C 5.259,54.386 17.488,64 31.959,64 c 17.673,0 32,-14.327 32,-32 0,-17.673 -14.327,-32 -32,-32 C 15.001,0 1.124,13.193 0.028,29.874 c 2.074,3.477 2.879,5.628 1.275,11.328 z"
         fill="url(#A)"
         id="path683"
         style="fill:url(#linearGradient685)" /><path
         d="m 30.31,23.985 0.003,0.158 -7.83,11.375 c -1.268,-0.058 -2.54,0.165 -3.748,0.662 a 8.14,8.14 0 0 0 -1.498,0.8 L 0.042,29.893 c 0,0 -0.398,6.546 1.26,11.424 l 12.156,5.016 c 0.6,2.728 2.48,5.12 5.242,6.27 a 8.88,8.88 0 0 0 11.603,-4.782 8.89,8.89 0 0 0 0.684,-3.656 l 11.193,-8.005 0.275,0.005 c 6.705,0 12.155,-5.466 12.155,-12.18 0,-6.714 -5.44,-12.16 -12.155,-12.174 -6.702,0 -12.155,5.46 -12.155,12.174 z m -1.88,23.05 c -1.454,3.5 -5.466,5.147 -8.953,3.694 a 6.84,6.84 0 0 1 -3.524,-3.362 l 3.957,1.64 a 5.04,5.04 0 0 0 6.591,-2.719 5.05,5.05 0 0 0 -2.715,-6.601 l -4.1,-1.695 c 1.578,-0.6 3.372,-0.62 5.05,0.077 1.7,0.703 3,2.027 3.696,3.72 0.696,1.693 0.692,3.56 -0.01,5.246 M 42.466,32.1 a 8.12,8.12 0 0 1 -8.098,-8.113 8.12,8.12 0 0 1 8.098,-8.111 8.12,8.12 0 0 1 8.1,8.111 8.12,8.12 0 0 1 -8.1,8.113 m -6.068,-8.126 a 6.09,6.09 0 0 1 6.08,-6.095 c 3.355,0 6.084,2.73 6.084,6.095 a 6.09,6.09 0 0 1 -6.084,6.093 6.09,6.09 0 0 1 -6.081,-6.093 z"
         id="path684"
         style="fill:#ffffff;fill-opacity:1" /></g></g></svg>
