<?xml version="1.0" encoding="UTF-8" standalone="no"?>
<svg
   version="1.1"
   width="1080"
   height="1080"
   shape-rendering="crispEdges"
   id="svg276"
   sodipodi:docname="extra_S.svg"
   inkscape:version="1.4.2 (ebf0e940d0, 2025-05-08)"
   xml:space="preserve"
   xmlns:inkscape="http://www.inkscape.org/namespaces/inkscape"
   xmlns:sodipodi="http://sodipodi.sourceforge.net/DTD/sodipodi-0.dtd"
   xmlns="http://www.w3.org/2000/svg"
   xmlns:svg="http://www.w3.org/2000/svg"><defs
     id="defs276" /><sodipodi:namedview
     id="namedview276"
     pagecolor="#ffffff"
     bordercolor="#000000"
     borderopacity="0.25"
     inkscape:showpageshadow="2"
     inkscape:pageopacity="0.0"
     inkscape:pagecheckerboard="0"
     inkscape:deskcolor="#d1d1d1"
     inkscape:zoom="0.20416666"
     inkscape:cx="274.28572"
     inkscape:cy="281.63266"
     inkscape:window-width="1536"
     inkscape:window-height="792"
     inkscape:window-x="0"
     inkscape:window-y="0"
     inkscape:window-maximized="1"
     inkscape:current-layer="svg276" /><g
     id="g2-6-5"
     transform="matrix(3.7795276,0,0,3.7795276,1463.5666,-1225.7797)"><rect
       style="fill:#ba6504;fill-opacity:1;stroke:none;stroke-width:9.03107;stroke-linecap:round;stroke-linejoin:round;stroke-miterlimit:4.4;paint-order:stroke fill markers"
       id="rect2-3-10-6"
       width="44.026489"
       height="45.719891"
       x="-145.51183"
       y="370.04074" /><g
       id="g3-6-2-6-9"
       inkscape:label="extra_icon"
       transform="matrix(0.14699086,0,0,0.14699086,-146.42916,257.96312)"
       style="stroke:none;stroke-width:1.2;stroke-dasharray:none"><path
         d="m 72.000015,827.99973 v 12 12 12 h 12 v 12 H 96.00002 v 12 12 h -12.000005 -12 v 12 12 12 h 12 12.000005 v 12 12 H 84.000015 v 12 h -12 v 12 12 11.99997 h 12 12.000005 v -11.99997 h 12 v -12 h 12 v -12 h 12 12 v 12 12 11.99997 h 12 12 v -11.99997 -12 -12 h 12 12 v 12 h 12 v 12 h 12 v 11.99997 h 12 12 v -11.99997 -12 -12 h -12 v -12 h -12 v -12 -12 h 12 12 v -12 -12 -12 h -12 -12 v -12 -12 h 12 v -12 h 12 v -12 -12 -12 h -12 -12 v 12 h -12 v 12 h -12 v 12 h -12 -12 v -12 -12 -12 h -12 -12 v 12 12 12 h -12 -12 v -12 h -12 v -12 h -12 v -12 H 84.000015 Z"
         style="fill:#f5efe9;fill-opacity:1;stroke:#f5efe9;stroke-width:24;stroke-linecap:round;stroke-linejoin:round;stroke-dasharray:none;stroke-opacity:1;shape-rendering:crispEdges"
         id="path15-2-3-3"
         inkscape:label="outline" /><path
         d="m 72.000009,851.99988 v 11.99985 H 84.00001 v -11.99985 z m 12.000001,11.99985 v 11.99985 h 12 v -11.99985 z m 12,11.99985 v 12.0003 h 12 v -12.0003 z m 12,12.0003 v 11.99985 h 12 v -11.99985 z m 12,11.99985 v 11.99985 h 12 v -11.99985 z m 24,-47.99985 v 11.99985 h 12 12 v -11.99985 h -12 z m 83.99996,0 v 11.99985 h 12.00005 v -11.99985 z m 0,11.99985 h -11.99995 v 11.99985 h 11.99995 z m -11.99995,11.99985 h -12.00001 v 12.0003 h 12.00001 z m -12.00001,12.0003 h -12.00005 v 11.99985 h 12.00005 z m -12.00005,11.99985 h -11.99995 v 11.99985 h 11.99995 z M 72.000009,923.99988 v 11.99985 h 12.000001 12 v -11.99985 h -12 z m 144.000011,0 v 11.99985 h 11.99995 12.00005 v -11.99985 h -12.00005 z m -72.00001,11.99985 v 11.99985 h 12 12 v -11.99985 h -12 z m 24,11.99985 v 12.00031 h 12 v -12.00031 z m 12,12.00031 v 11.99985 h 11.99995 v -11.99985 z m 11.99995,11.99985 v 11.99984 h 12.00005 v -11.99984 z m 12.00005,11.99984 v 12.00031 h 12.00001 v -12.00031 z m 12.00001,12.00031 v 11.99981 h 11.99995 12.00005 v -11.99981 h -12.00005 z m -72.00001,-48.00031 h -12 v 12.00031 h 12 z m -12,12.00031 h -12 v 11.99984 h 12 z m -12,11.99984 h -12 v 11.99985 h 12 z m -12,11.99985 h -12 v 12.00031 h 12 z m -12,12.00031 h -12 -12.000001 v 11.99981 h 12.000001 12 z m 48,0 v 11.99981 h 12 12 v -11.99981 h -12 z"
         style="fill:#ba6504;stroke:none;stroke-width:1.2;stroke-linecap:round;stroke-linejoin:round;stroke-dasharray:none;stroke-opacity:1;paint-order:normal;shape-rendering:crispEdges"
         id="path124-1-8-2-7"
         inkscape:label="shadow" /><path
         d="m 72.000009,827.99973 v 11.99985 12.0003 H 84.00001 v 11.99985 h 12 v 11.99985 h 12 v 12.0003 h 12 v 11.99985 h 12 v 11.99985 12.0003 h -12 v 11.99985 h -12 v 11.99985 h -12 v 12.0003 h -12 v 11.99985 H 72.000009 v 11.99985 12.00031 h 12.000001 12 v -12.00031 h 12 v -11.99985 h 12 v -11.99984 h 12 v -12.00031 h 12 v -11.99985 h 12 12 v 11.99985 h 12 v 12.00031 h 11.99995 v 11.99985 h 12.00005 v 11.99984 h 12.00001 v 12.00031 h 11.99995 12.00005 v -12.00031 -11.99984 h -12.00005 v -11.99985 h -11.99995 v -12.00031 h -12.00001 v -11.99985 h -12.00005 v -11.99985 h -11.99995 v -12.0003 -11.99985 h 11.99995 v -11.99985 h 12.00005 v -12.0003 h 12.00001 v -11.99985 h 11.99995 v -11.99985 h 12.00005 v -12.0003 -11.99985 h -12.00005 -11.99995 v 11.99985 h -12.00001 v 12.0003 h -12.00005 v 11.99985 h -11.99995 v 11.99985 h -12 v 12.0003 h -12 -12 v -12.0003 h -12 v -11.99985 h -12 v -11.99985 h -12 v -12.0003 h -12 v -11.99985 h -12 z m 72.000001,0 v 11.99985 12.0003 h 12 12 v -12.0003 -11.99985 h -12 z m -72.000001,72 v 11.99985 12.0003 h 12.000001 12 v -12.0003 -11.99985 h -12 z m 144.000011,0 v 11.99985 12.0003 h 11.99995 12.00005 v -12.0003 -11.99985 h -12.00005 z m -72.00001,72 v 11.99985 12.00031 h 12 12 v -12.00031 -11.99985 h -12 z"
         style="fill:#fa8805;stroke:none;stroke-width:1.2;stroke-linecap:round;stroke-linejoin:round;stroke-dasharray:none;stroke-opacity:1;paint-order:normal;shape-rendering:crispEdges"
         id="path125-8-9-0-4"
         inkscape:label="shape" /></g></g></svg>
