<?xml version="1.0" encoding="UTF-8" standalone="no"?>
<!-- Created with Inkscape (http://www.inkscape.org/) -->

<svg
   width="1080"
   height="1920"
   viewBox="0 0 285.74999 508"
   version="1.1"
   id="svg1"
   xml:space="preserve"
   inkscape:version="1.4.2 (ebf0e940d0, 2025-05-08)"
   sodipodi:docname="extra_V.svg"
   xmlns:inkscape="http://www.inkscape.org/namespaces/inkscape"
   xmlns:sodipodi="http://sodipodi.sourceforge.net/DTD/sodipodi-0.dtd"
   xmlns="http://www.w3.org/2000/svg"
   xmlns:svg="http://www.w3.org/2000/svg"><sodipodi:namedview
     id="namedview1"
     pagecolor="#ffffff"
     bordercolor="#000000"
     borderopacity="0.25"
     inkscape:showpageshadow="2"
     inkscape:pageopacity="0.0"
     inkscape:pagecheckerboard="0"
     inkscape:deskcolor="#d1d1d1"
     inkscape:document-units="mm"
     inkscape:zoom="0.13095539"
     inkscape:cx="1408.8767"
     inkscape:cy="866.70736"
     inkscape:window-width="1536"
     inkscape:window-height="792"
     inkscape:window-x="0"
     inkscape:window-y="0"
     inkscape:window-maximized="1"
     inkscape:current-layer="svg1" /><defs
     id="defs1" /><g
     id="g2"
     transform="translate(-55.033333,-14.675526)"><rect
       style="fill:#ba6504;fill-opacity:1;stroke:none;stroke-width:11.2889;stroke-linecap:round;stroke-linejoin:round;stroke-miterlimit:4.4;paint-order:stroke fill markers"
       id="rect2-3-7"
       width="55.033333"
       height="57.150093"
       x="285.75"
       y="68.650429" /><g
       id="g3-6-5-4"
       inkscape:label="extra_icon"
       transform="matrix(0.17638887,0,0,0.17638887,285.75001,-64.699507)"><path
         d="m 72,816 c -6.626997,6.6e-4 -11.999337,5.373 -12,12 v 12 12 12 c 6.63e-4,6.627 5.373003,11.99934 12,12 6.63e-4,6.627 5.373003,11.99934 12,12 H 72 c -6.626997,6.6e-4 -11.999337,5.373 -12,12 v 12 12 12 c 6.63e-4,6.627 5.373003,11.99934 12,12 h 12 c -6.626997,6.6e-4 -11.999337,5.373 -12,12 -6.626997,6.6e-4 -11.999337,5.373 -12,12 v 12 12 12 c 6.63e-4,6.627 5.373003,11.9993 12,12 h 12 12 c 6.627,-7e-4 11.99934,-5.373 12,-12 6.627,-7e-4 11.99934,-5.373 12,-12 6.627,-6.6e-4 11.99934,-5.373 12,-12 v 12 12 c 6.6e-4,6.627 5.373,11.9993 12,12 h 12 12 c 6.627,-7e-4 11.99934,-5.373 12,-12 v -12 -12 c 6.6e-4,6.627 5.373,11.99934 12,12 6.6e-4,6.627 5.373,11.9993 12,12 6.6e-4,6.627 5.373,11.9993 12,12 h 12 12 c 6.627,-7e-4 11.99934,-5.373 12,-12 v -12 -12 -12 c -6.6e-4,-6.627 -5.373,-11.99934 -12,-12 -6.6e-4,-6.627 -5.373,-11.99934 -12,-12 h 12 c 6.627,-6.6e-4 11.99934,-5.373 12,-12 v -12 -12 -12 c -6.6e-4,-6.627 -5.373,-11.99934 -12,-12 h -12 c 6.627,-6.6e-4 11.99934,-5.373 12,-12 6.627,-6.6e-4 11.99934,-5.373 12,-12 v -12 -12 -12 c -6.6e-4,-6.627 -5.373,-11.99934 -12,-12 h -12 -12 c -6.627,6.6e-4 -11.99934,5.373 -12,12 -6.627,6.6e-4 -11.99934,5.373 -12,12 -6.627,6.6e-4 -11.99934,5.373 -12,12 v -12 -12 c -6.6e-4,-6.627 -5.373,-11.99934 -12,-12 h -12 -12 c -6.627,6.6e-4 -11.99934,5.373 -12,12 v 12 12 c -6.6e-4,-6.627 -5.373,-11.99934 -12,-12 -6.6e-4,-6.627 -5.373,-11.99934 -12,-12 -6.6e-4,-6.627 -5.373,-11.99934 -12,-12 H 84 Z"
         style="fill:#f5efe9;stroke-linecap:round;stroke-linejoin:round"
         id="path12-6-4"
         inkscape:label="outline" /><path
         d="m 72.000009,851.99988 v 11.99985 H 84.00001 v -11.99985 z m 12.000001,11.99985 v 11.99985 h 12 v -11.99985 z m 12,11.99985 v 12.0003 h 12 v -12.0003 z m 12,12.0003 v 11.99985 h 12 v -11.99985 z m 12,11.99985 v 11.99985 h 12 v -11.99985 z m 24,-47.99985 v 11.99985 h 12 12 v -11.99985 h -12 z m 83.99996,0 v 11.99985 h 12.00005 v -11.99985 z m 0,11.99985 h -11.99995 v 11.99985 h 11.99995 z m -11.99995,11.99985 h -12.00001 v 12.0003 h 12.00001 z m -12.00001,12.0003 h -12.00005 v 11.99985 h 12.00005 z m -12.00005,11.99985 h -11.99995 v 11.99985 h 11.99995 z M 72.000009,923.99988 v 11.99985 h 12.000001 12 v -11.99985 h -12 z m 144.000011,0 v 11.99985 h 11.99995 12.00005 v -11.99985 h -12.00005 z m -72.00001,11.99985 v 11.99985 h 12 12 v -11.99985 h -12 z m 24,11.99985 v 12.00031 h 12 v -12.00031 z m 12,12.00031 v 11.99985 h 11.99995 v -11.99985 z m 11.99995,11.99985 v 11.99984 h 12.00005 v -11.99984 z m 12.00005,11.99984 v 12.00031 h 12.00001 v -12.00031 z m 12.00001,12.00031 v 11.99981 h 11.99995 12.00005 v -11.99981 h -12.00005 z m -72.00001,-48.00031 h -12 v 12.00031 h 12 z m -12,12.00031 h -12 v 11.99984 h 12 z m -12,11.99984 h -12 v 11.99985 h 12 z m -12,11.99985 h -12 v 12.00031 h 12 z m -12,12.00031 h -12 -12.000001 v 11.99981 h 12.000001 12 z m 48,0 v 11.99981 h 12 12 v -11.99981 h -12 z"
         style="fill:#ba6504;stroke:none;stroke-width:0.999998;stroke-linecap:round;stroke-linejoin:round;stroke-dasharray:none;stroke-opacity:1;paint-order:normal;shape-rendering:crispEdges"
         id="path124-1-2-3"
         inkscape:label="shadow" /><path
         d="m 72.000009,827.99973 v 11.99985 12.0003 H 84.00001 v 11.99985 h 12 v 11.99985 h 12 v 12.0003 h 12 v 11.99985 h 12 v 11.99985 12.0003 h -12 v 11.99985 h -12 v 11.99985 h -12 v 12.0003 h -12 v 11.99985 H 72.000009 v 11.99985 12.00031 h 12.000001 12 v -12.00031 h 12 v -11.99985 h 12 v -11.99984 h 12 v -12.00031 h 12 v -11.99985 h 12 12 v 11.99985 h 12 v 12.00031 h 11.99995 v 11.99985 h 12.00005 v 11.99984 h 12.00001 v 12.00031 h 11.99995 12.00005 v -12.00031 -11.99984 h -12.00005 v -11.99985 h -11.99995 v -12.00031 h -12.00001 v -11.99985 h -12.00005 v -11.99985 h -11.99995 v -12.0003 -11.99985 h 11.99995 v -11.99985 h 12.00005 v -12.0003 h 12.00001 v -11.99985 h 11.99995 v -11.99985 h 12.00005 v -12.0003 -11.99985 h -12.00005 -11.99995 v 11.99985 h -12.00001 v 12.0003 h -12.00005 v 11.99985 h -11.99995 v 11.99985 h -12 v 12.0003 h -12 -12 v -12.0003 h -12 v -11.99985 h -12 v -11.99985 h -12 v -12.0003 h -12 v -11.99985 h -12 z m 72.000001,0 v 11.99985 12.0003 h 12 12 v -12.0003 -11.99985 h -12 z m -72.000001,72 v 11.99985 12.0003 h 12.000001 12 v -12.0003 -11.99985 h -12 z m 144.000011,0 v 11.99985 12.0003 h 11.99995 12.00005 v -12.0003 -11.99985 h -12.00005 z m -72.00001,72 v 11.99985 12.00031 h 12 12 v -12.00031 -11.99985 h -12 z"
         style="fill:#fa8805;stroke:none;stroke-width:0.999998;stroke-linecap:round;stroke-linejoin:round;stroke-dasharray:none;stroke-opacity:1;paint-order:normal;shape-rendering:crispEdges"
         id="path125-8-9-0"
         inkscape:label="shape" /></g></g></svg>
