<?xml version="1.0" encoding="UTF-8" standalone="no"?>
<!-- Created with Inkscape (http://www.inkscape.org/) -->

<svg
   width="1080"
   height="1920"
   viewBox="0 0 285.74999 508"
   version="1.1"
   id="svg1"
   xml:space="preserve"
   inkscape:version="1.3.2 (091e20ef0f, 2023-11-25, custom)"
   sodipodi:docname="F1.svg"
   xmlns:inkscape="http://www.inkscape.org/namespaces/inkscape"
   xmlns:sodipodi="http://sodipodi.sourceforge.net/DTD/sodipodi-0.dtd"
   xmlns="http://www.w3.org/2000/svg"
   xmlns:svg="http://www.w3.org/2000/svg"><sodipodi:namedview
     id="namedview1"
     pagecolor="#ffffff"
     bordercolor="#000000"
     borderopacity="0.25"
     inkscape:showpageshadow="2"
     inkscape:pageopacity="0.0"
     inkscape:pagecheckerboard="0"
     inkscape:deskcolor="#d1d1d1"
     inkscape:document-units="mm"
     inkscape:zoom="2.0952862"
     inkscape:cx="186.60935"
     inkscape:cy="367.0143"
     inkscape:window-width="1536"
     inkscape:window-height="792"
     inkscape:window-x="0"
     inkscape:window-y="0"
     inkscape:window-maximized="1"
     inkscape:current-layer="svg1"
     showguides="false" /><defs
     id="defs1" /><path
     d="M 0,0 V 84.666667 370.41667 508 H 50.270833 209.02083 285.75 V 370.41667 84.666667 0 H 209.02083 50.270833 Z M 52.916667,84.666667 H 206.375 c 1.46125,0 2.64583,1.184585 2.64583,2.645833 v 280.45833 c 0,1.46125 -1.18458,2.64584 -2.64583,2.64584 H 52.916667 c -1.461242,0 -2.645834,-1.18459 -2.645834,-2.64584 V 87.3125 c 0,-1.461245 1.184589,-2.645833 2.645834,-2.645833 z"
     style="fill:#46ce46;stroke-width:5.29167;stroke-linecap:round;stroke-linejoin:round;stroke-miterlimit:4.4;fill-opacity:1"
     id="path11"
     inkscape:label="background" /><path
     d="m 52.916667,84.666667 c -1.461233,0 -2.645834,1.1846 -2.645834,2.645833 v 280.45833 c 0,1.46125 1.184583,2.64584 2.645834,2.64584 H 206.375 c 1.46124,0 2.64583,-1.18459 2.64583,-2.64584 V 87.3125 c 0,-1.461239 -1.18459,-2.645833 -2.64583,-2.645833 z m 0,2.645833 H 55.5625 203.72917 206.375 V 89.958333 365.125 367.77083 H 203.72917 55.5625 52.916667 V 365.125 89.958333 Z"
     style="fill:#e9f5e9;stroke-width:5.29167;stroke-linecap:round;stroke-linejoin:round;stroke-miterlimit:4.4;fill-opacity:1"
     id="path10"
     inkscape:label="frame" /><g
     id="g4"
     inkscape:label="abendiix"
     transform="matrix(0.22048442,0,0,0.22048442,-2.6441521,158.7517)"
     style="stroke-width:1.20001"><path
       d="m 565.47392,908.86872 c -0.0113,0 -0.0151,0.003 -0.0264,0.003 h -41.7385 v 0.0454 c -0.93853,0 -1.88462,0.0605 -2.83072,0.28875 -3.77529,0.9086 -6.96989,3.58451 -8.70051,7.28633 l -27.84115,59.55205 c -4.28375,9.16747 1.94915,19.95394 11.53122,19.95575 h 27.84116 27.8411 13.92185 55.67966 13.92185 55.67966 13.89585 55.73428 83.47132 27.89064 13.86709 27.89059 13.8985 27.8411 27.841 c 11.4824,-0.004 17.23129,-14.85263 9.1147,-23.53905 l -18.7241,-20.02605 18.7241,-20.0259 c 8.12089,-8.68626 2.3704,-23.5389 -9.1147,-23.54177 h -55.6821 c -0.011,3e-4 -0.015,0.002 -0.03,0.003 h -13.8982 -27.84119 -13.91909 -27.84121 -83.52076 -27.84105 -27.84121 -13.8906 -55.73696 -13.86459 c -0.0113,-1.5e-4 -0.0189,-0.003 -0.0302,-0.003 z"
       style="fill:#e9f5e9;fill-opacity:1;stroke:none;stroke-width:24.0002;stroke-linecap:round;stroke-linejoin:round;paint-order:stroke markers fill"
       id="path3197"
       inkscape:label="outline" /><path
       d="m 523.71152,922.6578 -27.8411,59.55462 h 55.68226 z m 41.7604,0 v 59.55462 h 55.68223 l -27.84113,-29.77603 27.84113,-29.77859 z m 69.60151,0 v 59.55462 h 55.68223 v -29.77603 h -27.84117 l 27.84117,-29.77859 z m 69.60409,0 v 59.55462 h 27.84106 27.83864 V 922.6578 h -27.83864 v 29.77602 z m 69.60151,0 v 59.55462 l 55.68227,-29.77603 z m 69.60151,0 v 59.55462 h 27.84121 V 922.6578 Z m 41.7603,0 v 59.55462 h 27.84117 V 922.6578 Z m 41.76307,0 27.8386,29.77602 27.841,-29.77602 z m 27.8386,29.77602 -27.8386,29.7786 h 55.6796 z"
       style="fill:#051638;stroke:none;stroke-width:24.0002;stroke-linecap:round;stroke-linejoin:round;paint-order:stroke markers fill"
       id="path2"
       inkscape:label="shape" /></g><g
     id="g102"
     inkscape:label="update_icon"
     transform="matrix(2.6458333,0,0,2.6458333,40.414674,336.11993)"
     style="stroke-width:0.1"><path
       d="M 5.7251621,-0.0374564 V 0.9625462 1.962545 H 4.7251633 V 2.9625437 3.9625462 H 3.7251646 V 4.962545 5.9625437 H 2.7251632 V 6.9625463 7.962545 H 1.7251633 V 8.9625438 9.962546 H 0.7251634 v 0.999999 0.999999 h -1.00000031 v 1.000002 0.999999 0.999999 h 1.00000031 0.9999999 0.9999999 1.0000014 0.9999987 0.9999988 1.0000025 0.9999988 0.9999986 1.0000025 0.9999985 0.999999 1.000002 0.999999 V 13.962545 12.962546 11.962544 H 12.725164 V 10.962545 9.962546 H 11.725162 V 8.9625438 7.962545 H 10.725163 V 6.9625463 5.9625437 H 9.7251645 V 4.962545 3.9625462 H 8.725162 V 2.9625437 1.962545 H 7.7251634 V 0.9625462 -0.0374564 H 6.7251646 Z"
       style="fill:#e9f5e9;fill-opacity:1;stroke:#e9f5e9;stroke-width:2;stroke-linecap:round;stroke-linejoin:round;stroke-dasharray:none;stroke-opacity:1"
       id="path1"
       inkscape:label="outline" /><path
       d="m 5.7251636,3.9625436 v 1 h 1 1 v -1 h -1 z m -1,2 v 1 h 1 v -1 z m 3,0 v 1 h 1 v -1 z m -4,2 v 1 h 1 v -1 z m 5,0 v 1 h 1 v -1 z m -6,2 v 1.0000004 h 1 V 9.9625436 Z m 3,0 v 1.0000004 h 1 1 V 9.9625436 h -1 z m 4,0 V 10.962544 H 10.725164 V 9.9625436 Z M -0.27483641,13.962544 v 1 h 1 1.00000001 1 1 1 1 1 1 1 1 1.0000004 1 1 1 v -1 h -1 -1 -1 -1.0000004 -1 -1 -1 -1 -1 -1 -1 -1 -1.00000001 z"
       style="fill:#2c822c;stroke-width:0.1"
       id="path100"
       inkscape:label="shadow" /><path
       d="m 5.7251636,7.9625436 v 1 1 h 1 1 v -1 -1 h -1 z"
       style="fill:#46ce46;stroke-width:0.1"
       id="path102"
       inkscape:label="inner_shape" /><path
       d="m 5.7251636,-0.03745638 v 1 0.99999998 h -1 v 1 1 h -1 v 1 1 h -1 v 1 1 h -1 v 1 1 H 0.72516359 v 1.0000004 1 h -1 v 1 1 h 1 1.00000001 1 1 1 1 1 1 1 1 1.0000004 1 1 1 v -1 -1 h -1 v -1 -1.0000004 h -1 v -1 -1 h -1 v -1 -1 H 9.7251636 v -1 -1 h -1 v -1 -1 h -1 v -0.99999998 -1 h -1 z m 0,3.99999998 h 1 1 v 1 1 h 1 v 1 1 h 1 v 1 1 h 1.0000004 v 1.0000004 1 h -1.0000004 -1 -1 -1 -1 -1 -1 -1 v -1 -1.0000004 h 1 v -1 -1 h 1 v -1 -1 h 1 v -1 z"
       style="fill:#46ce46;stroke-width:0.1"
       id="path101"
       inkscape:label="shape" /></g><g
     id="g2"
     transform="translate(89.958333,-7.9375001)"
     inkscape:label="update"><rect
       style="fill:#e9f5e9;fill-opacity:1;stroke-width:4.7625;stroke-linecap:round;stroke-linejoin:round;paint-order:markers stroke fill"
       id="rect1-3-1-85-7-1"
       width="97.895836"
       height="18.520836"
       x="-47.625"
       y="84.666664"
       ry="2.6457582"
       inkscape:label="outline" /><path
       d="m 37.042172,87.3125 v 0.01587 c -0.0291,-2.2e-4 -0.059,-6.61e-4 -0.0881,0 -0.433286,0.01058 -0.856759,0.12779 -1.235016,0.34109 -0.811964,0.476184 -1.309809,1.347907 -1.307348,2.289189 h -0.01588 v 2.645781 2.645756 2.64573 2.645784 h 2.645708 2.645706 2.645705 2.645708 2.645706 v -2.645308 h -2.645044 -2.645708 -2.645732 -2.64568 v -2.645756 h 2.64568 2.645732 2.645708 v -2.645757 h -2.645708 -2.645732 -2.64568 v -0.01587 -2.630252 h 2.64568 2.645732 2.645708 2.645679 V 87.313479 H 44.979318 42.33361 39.687878 Z"
       style="fill:#001427;stroke-width:2.64583;stroke-linecap:round;stroke-linejoin:round"
       id="path5-0-2-2-9"
       inkscape:label="e" /><path
       d="m 18.520827,87.3125 v 2.645863 h 2.645831 2.645836 v 2.645805 2.645836 2.64586 2.645806 h 2.645834 v -2.645806 -2.64586 -2.645836 -2.645805 h 2.645833 2.645834 V 87.3125 h -2.645834 -2.645833 -2.645834 -2.645836 z"
       style="fill:#001427;stroke-width:0.264583"
       id="path4-6-5"
       inkscape:label="t" /><path
       d="m 5.2039225,87.312831 c -0.434684,0.01587 -0.8589986,0.138108 -1.2350487,0.356595 -0.8160016,0.473591 -1.318075,1.34579 -1.3177575,2.289188 h -0.00529 v 2.645754 2.645757 2.645756 2.645759 H 5.29166 v -2.645759 h 2.6458314 2.6458366 2.645833 v 2.645759 h 2.645834 V 97.895855 95.250098 92.604342 89.958588 87.312831 H 13.229159 10.583326 7.9374898 5.2916584 c -0.029104,-4.41e-4 -0.059002,-4.41e-4 -0.088106,0 z m 0.088106,2.645757 H 7.93786 10.583696 13.22953 v 2.645754 2.645756 H 10.583564 7.937728 5.2918965 v -2.645756 z"
       style="fill:#001427;stroke-width:0.264583"
       id="path17-6-9-8"
       inkscape:label="a" /><path
       d="m -13.22918,87.3125 v 2.645834 2.645834 2.645833 2.645836 2.645833 h 2.645856 2.6458272 2.6458006 2.6458579 v -2.645833 h -2.6458579 -2.6458006 -2.6458272 v -2.645836 -2.645833 -2.645834 h 2.6458272 2.6458006 2.6458579 V 87.3125 h -2.6458579 -2.6458006 -2.6458272 z m 10.5833417,2.645834 v 2.645834 2.645833 2.645836 H -1.1204861e-5 v -2.645836 -2.645833 -2.645834 z"
       style="fill:#001427;stroke-width:0.264583"
       id="path3-8-3"
       inkscape:label="d" /><path
       d="m -29.104179,87.3125 v 2.645834 2.645834 2.645833 2.645836 2.645833 h 2.645758 v -2.645833 -2.645836 h 2.645732 2.645788 2.645759 c 0.0291,4.41e-4 0.059,4.41e-4 0.0881,0 0.43467,-0.01587 0.858972,-0.138112 1.235013,-0.356605 0.81598,-0.473578 1.31804,-1.345803 1.317722,-2.289255 h 0.0053 V 89.958334 87.3125 h -2.645761 -2.645759 -2.645761 -2.645758 z m 2.645758,2.645834 h 2.645732 2.645788 2.645759 v 2.645834 h -2.645759 -2.645788 -2.645732 z"
       style="fill:#001427;stroke-width:0.264583"
       id="path27-7-5"
       inkscape:label="p" /><path
       d="m -44.978832,87.312531 v 2.645757 2.645754 2.645757 2.645756 c -4.41e-4,0.0291 -4.41e-4,0.059 0,0.0881 0.01587,0.434699 0.138111,0.858866 0.356569,1.235013 0.473593,0.815982 1.345797,1.318042 2.289222,1.317722 v 0.005 h 2.645763 2.645761 2.645761 2.645763 v -2.645756 -2.645783 -2.64573 -2.645755 -2.645783 h -2.645763 v 2.645783 2.645755 2.64573 2.645783 h -2.645761 -2.645761 -2.645763 v -2.645783 -2.64573 -2.645755 -2.645783 z"
       style="fill:#001427;stroke-width:0.264583"
       id="path1-1-7"
       inkscape:label="u" /></g></svg>
