<?xml version="1.0" encoding="UTF-8" standalone="no"?>
<svg
   version="1.1"
   width="18"
   height="18"
   shape-rendering="crispEdges"
   id="svg102"
   sodipodi:docname="tap.svg"
   inkscape:version="1.4 (e7c3feb100, 2024-10-09)"
   xmlns:inkscape="http://www.inkscape.org/namespaces/inkscape"
   xmlns:sodipodi="http://sodipodi.sourceforge.net/DTD/sodipodi-0.dtd"
   xmlns="http://www.w3.org/2000/svg"
   xmlns:svg="http://www.w3.org/2000/svg">
  <defs
     id="defs102" />
  <sodipodi:namedview
     id="namedview102"
     pagecolor="#ffffff"
     bordercolor="#000000"
     borderopacity="0.25"
     inkscape:showpageshadow="2"
     inkscape:pageopacity="0.0"
     inkscape:pagecheckerboard="0"
     inkscape:deskcolor="#d1d1d1"
     inkscape:zoom="32"
     inkscape:cx="5.265625"
     inkscape:cy="12.578125"
     inkscape:window-width="1536"
     inkscape:window-height="792"
     inkscape:window-x="0"
     inkscape:window-y="0"
     inkscape:window-maximized="1"
     inkscape:current-layer="svg102" />
  <path
     d="m 8,14 v 1 h 1 v -1 z m 0,1 H 7 v 1 h 1 z"
     style="fill:#ffac59"
     id="path105" />
  <path
     d="m 12,14 v 1 h 1 v -1 z m 1,1 v 1 h 1 v -1 z"
     style="fill:#ffac59"
     id="path106" />
  <path
     d="m 2,0 v 1 h 1 1 1 1 1 1 1 1 1 1 1 1 1 1 V 0 H 15 14 13 12 11 10 9 8 7 6 5 4 3 Z m 14,1 v 1 h 1 V 1 Z m 1,1 v 1 1 1 1 1 1 1 1 1 1 1 1 1 1 h 1 V 15 14 13 12 11 10 9 8 7 6 5 4 3 2 Z m 0,14 h -1 v 1 h 1 z m -1,1 H 15 14 13 12 11 10 9 8 7 6 5 4 3 2 v 1 h 1 1 1 1 1 1 1 1 1 1 1 1 1 1 z M 2,17 V 16 H 1 v 1 z M 1,16 V 15 14 13 12 11 10 9 8 7 6 5 4 3 2 H 0 v 1 1 1 1 1 1 1 1 1 1 1 1 1 1 z M 1,2 H 2 V 1 H 1 Z"
     style="fill:#ffac59"
     id="path107" />
  <path
     d="m 11,15 h -1 v 1 h 1 z"
     style="fill:#ffac59"
     id="path104" />
  <path
     d="m 7,2 v 1 h 1 1 1 1 1 V 2 H 11 10 9 8 Z m 5,1 v 1 h 1 V 3 Z m 0,1 H 11 10 9 8 7 v 1 h 1 1 1 1 1 z m 0,1 v 1 h 1 V 5 Z m 1,1 v 1 1 1 h 1 V 8 7 6 Z m 0,3 H 12 V 8 7 h -1 v 1 1 1 1 1 1 h 1 v -1 -1 -1 h 1 z m -2,4 h -1 v 1 h 1 z m -1,0 V 12 11 10 9 8 H 9 v 1 1 H 8 v 1 h 1 v 1 1 z M 8,10 V 9 8 H 7 V 9 H 6 v 1 H 7 Z M 6,9 V 8 7 6 H 5 V 7 8 9 Z M 6,6 H 7 V 5 H 6 Z M 7,4 V 3 H 6 v 1 z"
     style="fill:#ffac59"
     id="path111" />
</svg>
