<?xml version="1.0" encoding="UTF-8" standalone="no"?>
<!-- Created with Inkscape (http://www.inkscape.org/) -->

<svg
   width="372"
   height="84"
   viewBox="0 0 98.424998 22.225"
   version="1.1"
   id="svg1"
   inkscape:version="1.3.2 (091e20ef0f, 2023-11-25, custom)"
   sodipodi:docname="extra.svg"
   xmlns:inkscape="http://www.inkscape.org/namespaces/inkscape"
   xmlns:sodipodi="http://sodipodi.sourceforge.net/DTD/sodipodi-0.dtd"
   xmlns="http://www.w3.org/2000/svg"
   xmlns:svg="http://www.w3.org/2000/svg">
  <sodipodi:namedview
     id="namedview1"
     pagecolor="#ffffff"
     bordercolor="#000000"
     borderopacity="0.25"
     inkscape:showpageshadow="2"
     inkscape:pageopacity="0.0"
     inkscape:pagecheckerboard="0"
     inkscape:deskcolor="#d1d1d1"
     inkscape:document-units="mm"
     inkscape:zoom="0.52382155"
     inkscape:cx="397.08179"
     inkscape:cy="561.25984"
     inkscape:window-width="1536"
     inkscape:window-height="792"
     inkscape:window-x="0"
     inkscape:window-y="0"
     inkscape:window-maximized="1"
     inkscape:current-layer="layer1" />
  <defs
     id="defs1" />
  <g
     inkscape:label="Layer 1"
     inkscape:groupmode="layer"
     id="layer1">
    <g
       id="g2"
       inkscape:label="extra"
       transform="translate(-22.224999,-22.225)">
      <path
         d="m 96,84 c -6.627581,8.33e-4 -11.999925,5.373176 -12,12 v 59.99023 0.01 c 0,0.007 0.0019,0.0128 0.002,0.0195 0.0018,1.56827 0.311011,3.12098 0.910156,4.57031 C 86.768995,165.07485 91.14532,167.9996 96,168 h 348 c 6.64791,0 12,-5.35209 12,-12 V 96 c 0,-6.647911 -5.35209,-12 -12,-12 H 96.001953 Z"
         style="fill:#f5efe9;fill-opacity:1;stroke-width:18;stroke-linecap:round;stroke-linejoin:round;paint-order:markers stroke fill"
         id="path4"
         transform="scale(0.26458333)"
         inkscape:label="outline" />
      <path
         d="m 104.66938,25.400432 c -0.52164,0.0192 -1.0308,0.165596 -1.48208,0.427908 -0.9792,0.568303 -1.58169,1.614948 -1.5813,2.74703 H 101.6 v 3.174914 3.174901 3.174902 3.174913 h 3.17499 v -3.174913 h 3.175 3.17501 3.175 V 41.275 h 3.17499 V 38.100051 34.925149 31.750248 28.575334 25.400432 H 114.3 h -3.175 -3.17501 -3.175 c -0.0348,-5.76e-4 -0.0708,-5.76e-4 -0.1056,0 z m 0.1056,3.174902 h 3.175 3.17501 3.175 v 3.174914 3.174901 h -3.17518 -3.17501 -3.175 v -3.174901 z"
         style="fill:#001427;stroke-width:0.264583"
         id="path17-6-9-8-6-6"
         inkscape:label="a" />
      <path
         d="m 82.550021,25.4 v 3.174973 3.174974 3.174985 6.349946 h 3.174995 v -6.349946 h 6.350002 v 3.174973 h 3.174996 v -3.174973 h 3.174998 v -3.174985 -3.174974 c 0,-1.758887 -1.4161,-3.174973 -3.174998,-3.174973 h -9.524998 z m 12.699993,12.699905 v 3.174973 h 3.174998 v -3.174973 z m -9.524998,-9.524932 h 1.587504 4.762498 3.174996 v 3.174974 H 87.31252 85.725016 Z"
         style="fill:#001427;stroke-width:2.64583;stroke-linecap:round;stroke-linejoin:round"
         id="path2-3-2-1-4-6"
         inkscape:label="r" />
      <path
         d="m 63.500026,25.4 v 3.174985 h 3.175007 3.174995 v 3.174974 3.174973 3.174985 3.174973 h 3.174995 v -3.174973 -3.174985 -3.174973 -3.174974 h 3.175007 3.174996 V 25.4 H 76.20003 73.025023 69.850028 66.675033 Z"
         style="fill:#001427;stroke-width:0.264583"
         id="path4-6-5-1-2"
         inkscape:label="t" />
      <path
         d="m 44.450018,25.4 v 3.174973 h 3.175007 V 25.4 Z m 3.175007,3.174973 v 3.174974 h 3.174996 v -3.174974 z m 3.174996,3.174974 v 3.174973 h 3.174995 v -3.174973 z m 3.174995,0 h 3.175007 v -3.174974 h -3.175007 z m 3.175007,-3.174974 h 3.174995 V 25.4 h -3.174995 z m -3.175007,6.349947 v 3.174985 h 3.175007 V 34.92492 Z m 3.175007,3.174985 v 3.174973 h 3.174995 V 38.099905 Z M 50.800021,34.92492 h -3.174996 v 3.174985 h 3.174996 z m -3.174996,3.174985 h -3.175007 v 3.174973 h 3.175007 z"
         style="fill:#001427;stroke-width:0.264583"
         id="path32-5"
         inkscape:label="x" />
      <path
         d="m 28.575644,25.4 v 0.018 c -0.0348,-3e-4 -0.0708,-8.28e-4 -0.105595,0 -0.519934,0.012 -1.028109,0.153365 -1.482011,0.409334 -0.974353,0.57146 -1.571768,1.617597 -1.568816,2.747208 h -0.0192 v 3.175121 3.175108 3.175107 3.17512 h 3.174841 3.174842 3.174854 3.174841 3.174842 V 38.100443 H 38.100181 34.92534 31.750486 28.575644 v -3.175107 h 3.174842 3.174854 3.174841 V 31.750228 H 34.92534 31.750486 28.575644 v -0.0192 -3.156508 h 3.174842 3.174854 3.174841 3.174842 V 25.4 H 38.100181 34.92534 31.750486 Z"
         style="fill:#001427;stroke-width:2.64583;stroke-linecap:round;stroke-linejoin:round"
         id="path5-0-2-2-9-6-43-5"
         inkscape:label="e" />
    </g>
  </g>
</svg>
