<?xml version="1.0" encoding="UTF-8" standalone="no"?>
<!-- Created with Inkscape (http://www.inkscape.org/) -->

<svg
   width="516"
   height="84"
   viewBox="0 0 136.525 22.225"
   version="1.1"
   id="svg1"
   inkscape:version="1.3.2 (091e20ef0f, 2023-11-25, custom)"
   sodipodi:docname="preview.svg"
   xmlns:inkscape="http://www.inkscape.org/namespaces/inkscape"
   xmlns:sodipodi="http://sodipodi.sourceforge.net/DTD/sodipodi-0.dtd"
   xmlns="http://www.w3.org/2000/svg"
   xmlns:svg="http://www.w3.org/2000/svg">
  <sodipodi:namedview
     id="namedview1"
     pagecolor="#ffffff"
     bordercolor="#000000"
     borderopacity="0.25"
     inkscape:showpageshadow="2"
     inkscape:pageopacity="0.0"
     inkscape:pagecheckerboard="0"
     inkscape:deskcolor="#d1d1d1"
     inkscape:document-units="mm"
     inkscape:zoom="0.52382155"
     inkscape:cx="397.08179"
     inkscape:cy="561.25984"
     inkscape:window-width="1536"
     inkscape:window-height="792"
     inkscape:window-x="0"
     inkscape:window-y="0"
     inkscape:window-maximized="1"
     inkscape:current-layer="layer1" />
  <defs
     id="defs1" />
  <g
     inkscape:label="Layer 1"
     inkscape:groupmode="layer"
     id="layer1">
    <g
       id="g3"
       inkscape:label="preview"
       transform="matrix(0.26458333,0,0,0.26458333,-22.225,-22.22501)">
      <rect
         style="fill:#e9f1f5;fill-opacity:1;stroke-width:18;stroke-linecap:round;stroke-linejoin:round;paint-order:markers stroke fill"
         id="rect1-3-1-85-7"
         width="516"
         height="84"
         x="84"
         y="84.000038"
         ry="11.999658"
         inkscape:label="outline" />
      <path
         d="m 528,96.00024 v 11.99953 11.99977 11.99966 11.99953 11.99977 h 11.99968 11.99968 11.99968 11.99958 c 0.13199,0.002 0.26759,0.002 0.39959,0 1.97144,-0.072 3.89589,-0.62638 5.60145,-1.61732 3.7008,-2.14793 5.97774,-6.10374 5.97634,-10.38257 H 588 V 131.99896 119.99942 107.99965 96 h -11.99978 v 11.99965 11.99977 11.99954 11.99965 H 563.99994 V 131.9992 119.99954 107.99977 h -11.99968 v 11.99977 11.99966 11.99953 H 540.00058 V 131.9992 119.99954 107.99977 96.00024 Z"
         style="fill:#001427;stroke-width:0.999996"
         id="path31"
         inkscape:label="w" />
      <path
         d="m 468.00227,96 v 0.072 c -0.13199,-0.001 -0.26759,-0.003 -0.39958,0 -1.96514,0.048 -3.88576,0.579582 -5.60132,1.546983 -3.68261,2.159694 -5.94053,6.113327 -5.92937,10.382547 H 456 v 11.99962 11.99962 11.99962 V 156 h 11.9994 11.99939 11.99938 11.99942 11.9994 v -11.99745 h -11.99641 -11.99942 -11.99938 -11.99939 v -11.99962 h 11.99939 11.99938 11.99942 v -11.99962 h -11.99942 -11.99938 -11.99939 v -0.072 -11.9293 h 11.99939 11.99938 11.99942 H 516 V 96.00456 h -11.99941 -11.99942 -11.99938 z"
         style="fill:#001427;stroke-width:9.99995;stroke-linecap:round;stroke-linejoin:round"
         id="path5-0-2-2-9-6-4"
         inkscape:label="e" />
      <path
         d="m 384,96 v 11.99998 h 11.99998 11.99998 v 11.99998 11.99999 11.99998 H 395.99998 384 v 11.99998 h 11.99998 11.99998 11.99999 11.99999 11.99998 v -11.99998 h -11.99998 -11.99999 v -11.99998 -11.99999 -11.99998 h 11.99999 11.99998 V 96 h -11.99998 -11.99999 -11.99999 -11.99998 z"
         style="fill:#001427;stroke-width:0.999999"
         id="path1"
         inkscape:label="i" />
      <path
         d="m 312,96 v 11.99998 11.99998 11.99999 h 11.99986 V 119.99996 107.99998 96 Z m 11.99986,35.99995 v 11.99998 h 12.00011 v -11.99998 z m 12.00011,11.99998 v 11.99998 h 11.99998 v -11.99998 z m 11.99998,0 h 11.99986 v -11.99998 h -11.99986 z m 11.99986,-11.99998 h 12.00011 V 119.99996 107.99998 96 h -12.00011 v 11.99998 11.99998 z"
         style="fill:#001427;stroke-width:0.999999"
         id="path29"
         inkscape:label="v" />
      <path
         d="m 252.00219,96 v 0.072 c -0.132,-0.001 -0.26759,-0.003 -0.39958,0 -1.96503,0.048 -3.88578,0.579582 -5.60134,1.546983 -3.6825,2.159694 -5.94043,6.113327 -5.92927,10.382427 H 240 v 11.99974 11.9995 11.99962 V 156 h 11.99943 11.99943 11.99941 11.99943 11.99942 v -11.99757 h -11.99656 -11.99942 -11.99941 -11.99942 v -11.99962 h 11.99942 11.99941 11.99943 v -11.99962 h -11.99943 -11.99941 -11.99942 v -0.072 -11.93374 h 11.99942 11.99941 11.99943 H 300 V 96 h -11.99943 -11.99943 -11.99941 z"
         style="fill:#001427;stroke-width:9.99995;stroke-linecap:round;stroke-linejoin:round"
         id="path5-0-2-2-9-6"
         inkscape:label="e" />
      <path
         d="M 168,96.000019 V 108 v 11.99998 11.99999 23.99996 h 11.99998 v -23.99996 h 23.99996 v 11.99998 h 11.99999 v -11.99998 h 11.99998 V 119.99998 108 c 0,-6.64775 -5.35222,-11.999981 -11.99998,-11.999981 h -35.99995 z m 47.99993,47.999931 v 11.99998 h 11.99998 V 143.99995 Z M 179.99998,108 h 5.99999 17.99997 11.99999 v 11.99998 h -29.99996 -5.99999 z"
         style="fill:#001427;stroke-width:9.99999;stroke-linecap:round;stroke-linejoin:round"
         id="path2-3-2-1"
         inkscape:label="r" />
      <path
         d="m 96,96 v 11.99998 11.99998 11.99999 11.99998 11.99998 h 11.99966 v -11.99998 -11.99998 h 11.99967 11.99968 11.99966 c 0.132,0.002 0.26759,0.002 0.39959,0 1.97143,-0.072 3.8958,-0.6264 5.60144,-1.61736 3.7007,-2.14788 5.97775,-6.10379 5.97631,-10.38275 h 0.024 V 107.99998 96 H 144.00034 132.0008 120.00101 108.00134 Z m 11.99966,11.99998 h 11.99967 11.99968 11.99966 v 11.99998 H 131.999 119.99933 107.99966 Z"
         style="fill:#001427;stroke-width:0.999997"
         id="path27-7-5-7"
         inkscape:label="p" />
    </g>
  </g>
</svg>
