<?xml version="1.0" encoding="UTF-8" standalone="no"?>
<!-- Created with Inkscape (http://www.inkscape.org/) -->

<svg
   width="444"
   height="84"
   viewBox="0 0 117.475 22.225"
   version="1.1"
   id="svg1"
   inkscape:version="1.3.2 (091e20ef0f, 2023-11-25, custom)"
   sodipodi:docname="update.svg"
   xmlns:inkscape="http://www.inkscape.org/namespaces/inkscape"
   xmlns:sodipodi="http://sodipodi.sourceforge.net/DTD/sodipodi-0.dtd"
   xmlns="http://www.w3.org/2000/svg"
   xmlns:svg="http://www.w3.org/2000/svg">
  <sodipodi:namedview
     id="namedview1"
     pagecolor="#ffffff"
     bordercolor="#000000"
     borderopacity="0.25"
     inkscape:showpageshadow="2"
     inkscape:pageopacity="0.0"
     inkscape:pagecheckerboard="0"
     inkscape:deskcolor="#d1d1d1"
     inkscape:document-units="mm"
     inkscape:zoom="1.0476431"
     inkscape:cx="328.3561"
     inkscape:cy="185.17757"
     inkscape:window-width="1536"
     inkscape:window-height="792"
     inkscape:window-x="0"
     inkscape:window-y="0"
     inkscape:window-maximized="1"
     inkscape:current-layer="layer1" />
  <defs
     id="defs1" />
  <g
     inkscape:label="Layer 1"
     inkscape:groupmode="layer"
     id="layer1">
    <g
       id="g3"
       inkscape:label="update"
       transform="matrix(0.26458333,0,0,0.26458333,-22.225018,-22.225)">
      <rect
         style="fill:#e9f5e9;fill-opacity:1;stroke-width:18;stroke-linecap:round;stroke-linejoin:round;paint-order:markers stroke fill"
         id="rect1-3-1-85-7-1"
         width="443.99994"
         height="84"
         x="84.000069"
         y="84"
         ry="11.999658"
         inkscape:label="outline" />
      <path
         d="m 468.00231,96 v 0.072 c -0.132,-0.001 -0.26759,-0.003 -0.39959,0 -1.96514,0.048 -3.88577,0.57958 -5.60133,1.54699 -3.68261,2.1597 -5.94055,6.11334 -5.92939,10.38246 H 456 v 11.99976 11.99965 11.99953 11.99976 h 11.99943 11.99942 11.99942 11.99943 11.99942 v -11.9976 H 504.0007 492.00127 480.00173 468.00243 V 132.0029 h 11.9993 11.99954 11.99943 v -11.99965 h -11.99943 -11.99954 -11.9993 v -0.072 -11.92933 h 11.9993 11.99954 H 504.0007 516 V 96.00444 h -11.9993 -11.99943 -11.99954 z"
         style="fill:#001427;stroke-width:10;stroke-linecap:round;stroke-linejoin:round"
         id="path5-0-2-2-9"
         inkscape:label="e" />
      <path
         d="m 384,96 v 12.00013 H 395.99999 408 V 120 132.00001 144.00013 156 h 12 V 144.00013 132.00001 120 108.00013 h 12 12 V 96 h -12 -12 -12 -12.00001 z"
         style="fill:#001427;stroke-width:0.999999"
         id="path4-6-5"
         inkscape:label="t" />
      <path
         d="m 323.60208,96.0015 c -1.97148,0.072 -3.89593,0.62638 -5.60148,1.61731 -3.70092,2.14794 -5.97804,6.10374 -5.9766,10.38246 H 312 v 11.99964 11.99965 11.99965 11.99964 h 12 V 144.00021 H 335.99999 348 360 v 11.99964 h 12 V 144.00009 132.00044 120.00079 108.00115 96.0015 H 360 348 335.99999 324 c -0.132,-0.002 -0.2676,-0.002 -0.3996,0 z m 0.3996,11.99965 h 11.99999 12.00001 12 v 11.99964 11.99965 h -12.0006 -12.00001 -11.99999 v -11.99965 z"
         style="fill:#001427;stroke-width:0.999999"
         id="path17-6-9-8"
         inkscape:label="a" />
      <path
         d="m 239.99999,96 v 12 12 12 12.00001 V 156 h 12.0001 11.99997 11.99985 12.00011 V 144.00001 H 275.99991 264.00006 252.00009 V 132 120 108 h 11.99997 11.99985 12.00011 V 96 h -12.00011 -11.99985 -11.99997 z m 48.00003,12 v 12 12 12.00001 h 11.99997 V 132 120 108 Z"
         style="fill:#001427;stroke-width:0.999999"
         id="path3-8-3"
         inkscape:label="d" />
      <path
         d="m 168,96 v 12 12 12 12.00001 V 156 h 11.99966 V 144.00001 132 h 11.99954 11.99979 11.99966 c 0.132,0.002 0.26759,0.002 0.39959,0 1.97142,-0.072 3.89581,-0.6264 5.60132,-1.61736 3.70082,-2.14788 5.97788,-6.1038 5.97644,-10.38276 H 228 V 108 96 H 216.00033 204.00067 192.001 180.00134 Z m 11.99966,12 h 11.99954 11.99979 11.99966 v 12 H 203.99899 191.9992 179.99966 Z"
         style="fill:#001427;stroke-width:1"
         id="path27-7-5"
         inkscape:label="p" />
      <path
         d="m 96.001586,96.000138 v 11.999652 11.99964 11.99965 11.99965 c -0.002,0.13199 -0.002,0.26759 0,0.39958 0.072,1.97155 0.626391,3.89533 1.617196,5.60132 2.147949,3.70081 6.103768,5.97786 10.382608,5.97642 v 0.024 h 11.99968 11.99967 11.99967 11.99968 V 144.00041 132.00064 120.00111 108.00147 96.001698 h -11.99968 v 11.999772 11.99964 11.99953 11.99977 H 132.00074 120.00107 108.00139 V 132.00064 120.00111 108.00147 96.001698 Z"
         style="fill:#001427;stroke-width:1"
         id="path1-1-7"
         inkscape:label="u" />
    </g>
  </g>
</svg>
