<?xml version="1.0" encoding="UTF-8" standalone="no"?>
<svg
   version="1.1"
   width="1080"
   height="1080"
   shape-rendering="crispEdges"
   id="svg276"
   sodipodi:docname="F1.svg"
   inkscape:version="1.3.2 (091e20ef0f, 2023-11-25, custom)"
   xml:space="preserve"
   xmlns:inkscape="http://www.inkscape.org/namespaces/inkscape"
   xmlns:sodipodi="http://sodipodi.sourceforge.net/DTD/sodipodi-0.dtd"
   xmlns="http://www.w3.org/2000/svg"
   xmlns:svg="http://www.w3.org/2000/svg"><defs
     id="defs276" /><sodipodi:namedview
     id="namedview276"
     pagecolor="#ffffff"
     bordercolor="#000000"
     borderopacity="0.25"
     inkscape:showpageshadow="2"
     inkscape:pageopacity="0.0"
     inkscape:pagecheckerboard="0"
     inkscape:deskcolor="#d1d1d1"
     inkscape:zoom="3.2666666"
     inkscape:cx="519.18368"
     inkscape:cy="997.34696"
     inkscape:window-width="1536"
     inkscape:window-height="792"
     inkscape:window-x="0"
     inkscape:window-y="0"
     inkscape:window-maximized="1"
     inkscape:current-layer="svg276" /><path
     d="M 0,0 V 1080 H 1080 V 0 Z m 132,120 h 816 c 1.45093,0.0269 2.88495,0.31674 4.23242,0.85547 0.45052,0.17122 0.8332,0.41663 1.25586,0.63867 0.84682,0.43512 1.63885,0.96948 2.35938,1.5918 0.3852,0.33898 0.72742,0.6812 1.0664,1.0664 0.62232,0.72053 1.15668,1.51256 1.5918,2.35938 0.22204,0.42266 0.46745,0.80534 0.63867,1.25586 0.53873,1.34747 0.82858,2.78149 0.85547,4.23242 v 816 c 0,6.62737 -5.37263,12 -12,12 H 132 c -6.62735,0 -12,-5.37265 -12,-12 V 132 c 0,-6.62734 5.37266,-12 12,-12 z"
     style="fill:#46ce46;stroke-width:18;stroke-linecap:round;stroke-linejoin:round;paint-order:markers stroke fill;fill-opacity:1"
     id="path16"
     inkscape:label="background" /><path
     d="m 132,120 a 12,12 0 0 0 -12,12 v 816 a 12,12 0 0 0 12,12 h 816 a 12,12 0 0 0 12,-12 V 132 c 0,-1.50106 -0.3521,-2.90795 -0.85547,-4.23242 a 12,12 0 0 0 -0.63867,-1.25586 c -0.4459,-0.84879 -0.96379,-1.64574 -1.5918,-2.35938 a 12,12 0 0 0 -1.0664,-1.0664 c -0.71364,-0.62801 -1.51059,-1.1459 -2.35938,-1.5918 a 12,12 0 0 0 -1.25586,-0.63867 C 950.90795,120.3521 949.50106,120 948,120 Z m 0,12 h 12 804 V 948 H 132 V 144 Z"
     style="fill:#e9f5e9;stroke-width:18;stroke-linecap:round;stroke-linejoin:round;paint-order:markers stroke fill;fill-opacity:1"
     id="path17"
     inkscape:label="frame" /><g
     id="g4"
     inkscape:label="abendiix"><path
       d="m 565.47392,908.86872 c -0.0113,0 -0.0151,0.003 -0.0264,0.003 h -41.7385 v 0.0454 c -0.93853,0 -1.88462,0.0605 -2.83072,0.28875 -3.77529,0.9086 -6.96989,3.58451 -8.70051,7.28633 l -27.84115,59.55205 c -4.28375,9.16747 1.94915,19.95394 11.53122,19.95575 h 27.84116 27.8411 13.92185 55.67966 13.92185 55.67966 13.89585 55.73428 83.47132 27.89064 13.86709 27.89059 13.8985 27.8411 27.841 c 11.4824,-0.004 17.23129,-14.85263 9.1147,-23.53905 l -18.7241,-20.02605 18.7241,-20.0259 c 8.12089,-8.68626 2.3704,-23.5389 -9.1147,-23.54177 h -55.6821 c -0.011,3e-4 -0.015,0.002 -0.03,0.003 h -13.8982 -27.84119 -13.91909 -27.84121 -83.52076 -27.84105 -27.84121 -13.8906 -55.73696 -13.86459 c -0.0113,-1.5e-4 -0.0189,-0.003 -0.0302,-0.003 z"
       style="fill:#e9f5e9;fill-opacity:1;stroke:none;stroke-width:20;stroke-linecap:round;stroke-linejoin:round;paint-order:stroke markers fill"
       id="path3197"
       inkscape:label="outline" /><path
       d="m 523.71152,922.6578 -27.8411,59.55462 h 55.68226 z m 41.7604,0 v 59.55462 h 55.68223 l -27.84113,-29.77603 27.84113,-29.77859 z m 69.60151,0 v 59.55462 h 55.68223 v -29.77603 h -27.84117 l 27.84117,-29.77859 z m 69.60409,0 v 59.55462 h 27.84106 27.83864 V 922.6578 h -27.83864 v 29.77602 z m 69.60151,0 v 59.55462 l 55.68227,-29.77603 z m 69.60151,0 v 59.55462 h 27.84121 V 922.6578 Z m 41.7603,0 v 59.55462 h 27.84117 V 922.6578 Z m 41.76307,0 27.8386,29.77602 27.841,-29.77602 z m 27.8386,29.77602 -27.8386,29.7786 h 55.6796 z"
       style="fill:#051638;stroke:none;stroke-width:20;stroke-linecap:round;stroke-linejoin:round;paint-order:stroke markers fill"
       id="path2"
       inkscape:label="shape" /></g><g
     id="g1"
     inkscape:label="update_icon"
     transform="translate(-112.72169,265.00001)"><path
       d="m 261.43597,552 v 12.73333 12.73334 H 248.65026 V 590.2 602.93333 H 235.86454 V 615.66667 628.4 h -12.78571 v 12.73333 12.73333 H 210.29312 V 666.6 679.33333 H 197.5074 V 692.06666 704.8 h -12.78571 v 12.73333 12.73333 12.73333 h 12.78571 12.78572 12.78571 12.78571 12.78572 12.78571 12.78571 12.78572 12.78571 12.78572 12.78571 12.78572 12.78571 12.78571 V 730.26666 717.53333 704.8 H 350.93597 V 692.06666 679.33333 H 338.15026 V 666.6 653.86666 H 325.36454 V 641.13333 628.4 H 312.57883 V 615.66667 602.93333 H 299.79311 V 590.2 577.46667 H 287.0074 V 564.73333 552 h -12.78572 z"
       style="fill:#e9f5e9;fill-opacity:1;stroke:#e9f5e9;stroke-width:24;stroke-linecap:round;stroke-linejoin:round;stroke-dasharray:none;stroke-opacity:1"
       id="path193"
       inkscape:label="outline" /><path
       d="m 261.43597,602.93333 v 12.73334 h 12.78571 12.78572 V 602.93333 H 274.22168 Z M 248.65026,628.4 v 12.73333 h 12.78571 V 628.4 Z m 38.35714,0 v 12.73333 h 12.78571 V 628.4 Z m -51.14286,25.46666 V 666.6 h 12.78572 v -12.73334 z m 63.92857,0 V 666.6 h 12.78572 v -12.73334 z m -76.71428,25.46667 v 12.73333 h 12.78571 v -12.73333 z m 38.35714,0 v 12.73333 h 12.78571 12.78572 v -12.73333 h -12.78572 z m 51.14286,0 v 12.73333 h 12.78571 v -12.73333 z m -127.85714,50.93333 v 12.73333 h 12.78571 12.78572 12.78571 12.78571 12.78572 12.78571 12.78571 12.78572 12.78571 12.78572 12.78571 12.78572 12.78571 12.78571 V 730.26666 H 350.93597 338.15026 325.36454 312.57883 299.79311 287.0074 274.22168 261.43597 248.65026 235.86454 223.07883 210.29312 197.5074 Z"
       style="fill:#2c822c;stroke-width:1"
       id="path190"
       inkscape:label="shadow" /><path
       d="M 261.43597,653.86666 V 666.6 679.33333 h 12.78571 12.78572 V 666.6 653.86666 h -12.78572 z"
       style="fill:#46ce46;stroke-width:1"
       id="path192"
       inkscape:label="inner_shape" /><path
       d="m 261.43597,552 v 12.73333 12.73334 H 248.65026 V 590.2 602.93333 H 235.86454 V 615.66667 628.4 h -12.78571 v 12.73333 12.73333 H 210.29312 V 666.6 679.33333 H 197.5074 V 692.06666 704.8 h -12.78571 v 12.73333 12.73333 h 12.78571 12.78572 12.78571 12.78571 12.78572 12.78571 12.78571 12.78572 12.78571 12.78572 12.78571 12.78572 12.78571 12.78571 V 717.53333 704.8 H 350.93597 V 692.06666 679.33333 H 338.15026 V 666.6 653.86666 H 325.36454 V 641.13333 628.4 H 312.57883 V 615.66667 602.93333 H 299.79311 V 590.2 577.46667 H 287.0074 V 564.73333 552 h -12.78572 z m 0,50.93333 h 12.78571 12.78572 V 615.66667 628.4 h 12.78571 v 12.73333 12.73333 h 12.78572 V 666.6 679.33333 h 12.78571 V 692.06666 704.8 H 312.57883 299.79311 287.0074 274.22168 261.43597 248.65026 235.86454 223.07883 v -12.73334 -12.73333 h 12.78571 V 666.6 653.86666 h 12.78572 V 641.13333 628.4 h 12.78571 v -12.73333 z"
       style="fill:#46ce46;stroke-width:1"
       id="path191"
       inkscape:label="shape" /></g><g
     id="g3"
     inkscape:label="update"><rect
       style="fill:#e9f5e9;stroke-width:18;stroke-linecap:round;stroke-linejoin:round;paint-order:markers stroke fill;fill-opacity:1"
       id="rect1-3-1-85-7-1"
       width="443.99994"
       height="84"
       x="84.000069"
       y="84"
       ry="11.999658"
       inkscape:label="outline" /><path
       d="m 468.00231,96 v 0.072 c -0.132,-0.001 -0.26759,-0.003 -0.39959,0 -1.96514,0.048 -3.88577,0.57958 -5.60133,1.54699 -3.68261,2.1597 -5.94055,6.11334 -5.92939,10.38246 H 456 v 11.99976 11.99965 11.99953 11.99976 h 11.99943 11.99942 11.99942 11.99943 11.99942 v -11.9976 H 504.0007 492.00127 480.00173 468.00243 V 132.0029 h 11.9993 11.99954 11.99943 v -11.99965 h -11.99943 -11.99954 -11.9993 v -0.072 -11.92933 h 11.9993 11.99954 H 504.0007 516 V 96.00444 h -11.9993 -11.99943 -11.99954 z"
       style="fill:#001427;stroke-width:10;stroke-linecap:round;stroke-linejoin:round"
       id="path5-0-2-2-9"
       inkscape:label="e" /><path
       d="m 384,96 v 12.00013 H 395.99999 408 V 120 132.00001 144.00013 156 h 12 V 144.00013 132.00001 120 108.00013 h 12 12 V 96 h -12 -12 -12 -12.00001 z"
       style="fill:#001427;stroke-width:0.999999"
       id="path4-6-5"
       inkscape:label="t" /><path
       d="m 323.60208,96.0015 c -1.97148,0.072 -3.89593,0.62638 -5.60148,1.61731 -3.70092,2.14794 -5.97804,6.10374 -5.9766,10.38246 H 312 v 11.99964 11.99965 11.99965 11.99964 h 12 V 144.00021 H 335.99999 348 360 v 11.99964 h 12 V 144.00009 132.00044 120.00079 108.00115 96.0015 H 360 348 335.99999 324 c -0.132,-0.002 -0.2676,-0.002 -0.3996,0 z m 0.3996,11.99965 h 11.99999 12.00001 12 v 11.99964 11.99965 h -12.0006 -12.00001 -11.99999 v -11.99965 z"
       style="fill:#001427;stroke-width:0.999999"
       id="path17-6-9-8"
       inkscape:label="a" /><path
       d="m 239.99999,96 v 12 12 12 12.00001 V 156 h 12.0001 11.99997 11.99985 12.00011 V 144.00001 H 275.99991 264.00006 252.00009 V 132 120 108 h 11.99997 11.99985 12.00011 V 96 h -12.00011 -11.99985 -11.99997 z m 48.00003,12 v 12 12 12.00001 h 11.99997 V 132 120 108 Z"
       style="fill:#001427;stroke-width:0.999999"
       id="path3-8-3"
       inkscape:label="d" /><path
       d="m 168,96 v 12 12 12 12.00001 V 156 h 11.99966 V 144.00001 132 h 11.99954 11.99979 11.99966 c 0.132,0.002 0.26759,0.002 0.39959,0 1.97142,-0.072 3.89581,-0.6264 5.60132,-1.61736 3.70082,-2.14788 5.97788,-6.1038 5.97644,-10.38276 H 228 V 108 96 H 216.00033 204.00067 192.001 180.00134 Z m 11.99966,12 h 11.99954 11.99979 11.99966 v 12 H 203.99899 191.9992 179.99966 Z"
       style="fill:#001427;stroke-width:1"
       id="path27-7-5"
       inkscape:label="p" /><path
       d="m 96.001586,96.000138 v 11.999652 11.99964 11.99965 11.99965 c -0.002,0.13199 -0.002,0.26759 0,0.39958 0.072,1.97155 0.626391,3.89533 1.617196,5.60132 2.147949,3.70081 6.103768,5.97786 10.382608,5.97642 v 0.024 h 11.99968 11.99967 11.99967 11.99968 V 144.00041 132.00064 120.00111 108.00147 96.001698 h -11.99968 v 11.999772 11.99964 11.99953 11.99977 H 132.00074 120.00107 108.00139 V 132.00064 120.00111 108.00147 96.001698 Z"
       style="fill:#001427;stroke-width:1"
       id="path1-1-7"
       inkscape:label="u" /></g></svg>
