<?xml version="1.0" encoding="UTF-8" standalone="no"?>
<svg
   version="1.1"
   width="1080"
   height="1080"
   shape-rendering="crispEdges"
   id="svg276"
   sodipodi:docname="F6.svg"
   inkscape:version="1.3.2 (091e20ef0f, 2023-11-25, custom)"
   xmlns:inkscape="http://www.inkscape.org/namespaces/inkscape"
   xmlns:sodipodi="http://sodipodi.sourceforge.net/DTD/sodipodi-0.dtd"
   xmlns="http://www.w3.org/2000/svg"
   xmlns:svg="http://www.w3.org/2000/svg">
  <defs
     id="defs276" />
  <sodipodi:namedview
     id="namedview276"
     pagecolor="#ffffff"
     bordercolor="#000000"
     borderopacity="0.25"
     inkscape:showpageshadow="2"
     inkscape:pageopacity="0.0"
     inkscape:pagecheckerboard="0"
     inkscape:deskcolor="#d1d1d1"
     inkscape:zoom="4.6197642"
     inkscape:cx="168.1904"
     inkscape:cy="179.01346"
     inkscape:window-width="1536"
     inkscape:window-height="792"
     inkscape:window-x="0"
     inkscape:window-y="0"
     inkscape:window-maximized="1"
     inkscape:current-layer="svg276" />
  <path
     d="M 0,0 V 1080 H 1080 V 0 Z m 156,144 h 768 c 6.62735,0 12,5.37265 12,12 v 768 c 0,6.62737 -5.37263,12 -12,12 H 156 c -6.62738,0 -12,-5.37262 -12,-12 V 156 c 0,-6.62734 5.37266,-12 12,-12 z"
     style="fill:#46ce46;stroke-width:18;stroke-linecap:round;stroke-linejoin:round;paint-order:markers stroke fill;fill-opacity:1"
     id="path6"
     inkscape:label="background" />
  <path
     d="m 156,144 c -6.62739,0 -12,5.37261 -12,12 v 768 c 0,6.62739 5.37261,12 12,12 h 768 c 6.62739,0 12,-5.37261 12,-12 V 156 c 0,-6.62739 -5.37261,-12 -12,-12 z m 0,12 H 924 V 924 H 168 156 v -12 z"
     style="fill:#e9f5e9;stroke-width:18;stroke-linecap:round;stroke-linejoin:round;paint-order:markers stroke fill;fill-opacity:1"
     id="path7"
     inkscape:label="frame" />
</svg>
