<?xml version="1.0" encoding="UTF-8" standalone="no"?>
<!--Abendiix CC0 - https://abendiix.com-->

<svg
   version="1.1"
   width="14"
   height="14"
   shape-rendering="crispEdges"
   id="svg196"
   sodipodi:docname="resource_S.svg"
   inkscape:version="1.3.2 (091e20ef0f, 2023-11-25, custom)"
   xml:space="preserve"
   xmlns:inkscape="http://www.inkscape.org/namespaces/inkscape"
   xmlns:sodipodi="http://sodipodi.sourceforge.net/DTD/sodipodi-0.dtd"
   xmlns="http://www.w3.org/2000/svg"
   xmlns:svg="http://www.w3.org/2000/svg"><defs
     id="defs196"><inkscape:path-effect
       effect="fillet_chamfer"
       id="path-effect1"
       is_visible="true"
       lpeversion="1"
       nodesatellites_param="F,0,0,1,0,6.35,0,1 @ F,0,0,1,0,6.35,0,1 @ F,0,0,1,0,6.35,0,1 @ F,0,0,1,0,6.35,0,1"
       radius="24"
       unit="px"
       method="auto"
       mode="F"
       chamfer_steps="1"
       flexible="false"
       use_knot_distance="true"
       apply_no_radius="true"
       apply_with_radius="true"
       only_selected="false"
       hide_knots="false" /></defs><sodipodi:namedview
     id="namedview196"
     pagecolor="#ffffff"
     bordercolor="#000000"
     borderopacity="0.25"
     inkscape:showpageshadow="2"
     inkscape:pageopacity="0.0"
     inkscape:pagecheckerboard="0"
     inkscape:deskcolor="#d1d1d1"
     inkscape:zoom="17.43262"
     inkscape:cx="7.0557382"
     inkscape:cy="4.589098"
     inkscape:window-width="1536"
     inkscape:window-height="792"
     inkscape:window-x="0"
     inkscape:window-y="0"
     inkscape:window-maximized="1"
     inkscape:current-layer="svg196" /><rect
     style="fill:#ffffff;stroke:#fefefe;stroke-width:0;paint-order:markers stroke fill"
     id="rect198"
     width="14"
     height="14"
     x="0"
     y="0"
     inkscape:label="background" /><path
     d="M 9.4679343,3.4033936 9.6232203,3.9829278 9.0436858,4.1382136 9.1989713,4.7177476 8.6194371,4.8730334 8.7747546,5.4526858 8.1952206,5.6079714 7.6155681,5.7632888 7.460251,5.1836365 6.8807168,5.3389223 7.0360341,5.9185744 6.4565,6.0738602 6.3011824,5.4942079 5.7216483,5.6494937 5.8769656,6.2291458 5.2974316,6.3844316 5.1421143,5.8047792 4.562462,5.9600967 4.7177793,6.5397488 4.1382453,6.6950346 4.2935308,7.2745686 4.8730652,7.1192831 5.0283506,7.6988173 5.1836364,8.2783515 4.6041024,8.4336371 4.0245682,8.5889229 3.445034,8.7442087 2.8654998,8.8994941 3.0207855,9.4790281 3.6003196,9.3237431 4.1798538,9.1684571 4.759388,9.0131711 5.338922,8.8578851 5.9185745,8.7025681 6.4981084,8.5472825 7.0776427,8.3919967 7.6571769,8.2367109 8.236711,8.0814253 8.8163633,7.9261081 8.6610775,7.3465739 8.0814254,7.5018913 7.9261395,6.9223571 7.7708539,6.3428228 8.3505061,6.1875054 8.9300402,6.0322198 9.085326,6.6117541 9.6648603,6.4564682 9.8201463,7.0360025 10.39968,6.8807167 10.554966,7.4602509 11.1345,7.3049651 10.979214,6.7254311 10.823928,6.1458969 10.668643,5.5663626 10.513357,4.9868286 10.35804,4.4071763 10.202754,3.8276423 10.047468,3.2481079 Z M 8.8163633,7.9261081 8.9716805,8.5057602 9.1269664,9.0852941 9.7065003,8.9300091 9.5512143,8.3504747 9.3958973,7.7708223 Z M 9.1269664,9.0852941 8.547314,9.2406121 7.9677799,9.3958971 7.3882457,9.5511831 6.8087114,9.7064691 6.2291774,9.8617541 5.649525,10.017072 5.0699911,10.172357 5.2252768,10.751892 5.8048109,10.596606 6.3844633,10.441289 6.9639972,10.286003 7.5435316,10.130717 8.1230658,9.9754311 8.7025998,9.8201461 9.2822523,9.6648281 Z M 5.0699911,10.172357 4.9147055,9.5928231 4.3351712,9.7481091 4.4904568,10.327643 Z M 4.2935308,7.2745686 3.7139967,7.4298544 3.8692825,8.0093887 4.4488167,7.8541029 Z M 5.4527172,6.9639656 6.0322512,6.80868 6.1875371,7.3882143 6.3428228,7.9677485 5.7632886,8.1230341 5.608003,7.5434998 Z M 6.6117854,6.6533942 7.1913197,6.4981084 7.3466055,7.0776427 7.5018913,7.6571769 6.9223571,7.8124627 6.7670712,7.2329285 Z"
     style="fill:#ffd359;stroke-width:0.236221"
     id="path1"
     inkscape:label="trumpet" /></svg>
