<?xml version="1.0" encoding="UTF-8" standalone="no"?>
<!-- Created with Inkscape (http://www.inkscape.org/) -->

<svg
   width="1080"
   height="1920"
   viewBox="0 0 285.74999 508"
   version="1.1"
   id="svg1"
   inkscape:version="1.3.2 (091e20ef0f, 2023-11-25, custom)"
   sodipodi:docname="resource_V.svg"
   xmlns:inkscape="http://www.inkscape.org/namespaces/inkscape"
   xmlns:sodipodi="http://sodipodi.sourceforge.net/DTD/sodipodi-0.dtd"
   xmlns="http://www.w3.org/2000/svg"
   xmlns:svg="http://www.w3.org/2000/svg">
  <sodipodi:namedview
     id="namedview1"
     pagecolor="#ffffff"
     bordercolor="#000000"
     borderopacity="0.25"
     inkscape:showpageshadow="2"
     inkscape:pageopacity="0.0"
     inkscape:pagecheckerboard="0"
     inkscape:deskcolor="#d1d1d1"
     inkscape:document-units="mm"
     inkscape:zoom="0.40946315"
     inkscape:cx="752.20444"
     inkscape:cy="1079.4622"
     inkscape:window-width="1536"
     inkscape:window-height="792"
     inkscape:window-x="0"
     inkscape:window-y="0"
     inkscape:window-maximized="1"
     inkscape:current-layer="layer1" />
  <defs
     id="defs1" />
  <g
     inkscape:label="Layer 1"
     inkscape:groupmode="layer"
     id="layer1">
    <rect
       width="285.75"
       height="508"
       id="rect1"
       x="0"
       y="0"
       style="stroke-width:0.793749;fill:#ffffff;fill-opacity:1"
       inkscape:label="background" />
    <path
       d="m 160.28749,177.12517 2.07144,7.72834 -7.72783,2.07144 2.07144,7.72833 -7.72783,2.07144 2.07144,7.72985 -7.72783,2.07144 -7.72985,2.07144 -2.07144,-7.72985 -7.72834,2.07144 2.07144,7.72985 -7.72834,2.07144 -2.07144,-7.72934 -7.72833,2.07144 2.07144,7.72985 -7.72834,2.07144 -2.07144,-7.72935 -7.729847,2.07144 2.071445,7.72985 -7.728341,2.07144 2.07144,7.72834 7.727839,-2.07144 2.071434,7.72834 2.07144,7.72783 -7.727833,2.07144 -7.728336,2.07144 -7.727833,2.07144 -7.728337,2.07144 2.07144,7.72783 7.727833,-2.07144 7.728337,-2.07144 7.727837,-2.07144 7.728332,-2.07144 7.72985,-2.07144 7.72783,-2.07144 7.72834,-2.07144 7.72783,-2.07144 7.72834,-2.07144 7.72934,-2.07144 -2.07144,-7.72834 -7.72985,2.07144 -2.07144,-7.72833 -2.07145,-7.72784 7.72935,-2.07144 7.72833,-2.07144 2.07144,7.72834 7.72784,-2.07144 2.07144,7.72834 7.72783,-2.07144 2.07144,7.72833 7.72783,-2.07144 -2.07144,-7.72783 -2.07144,-7.72834 -2.07144,-7.72783 -2.07144,-7.72834 -2.07144,-7.72934 -2.07144,-7.72834 -2.07144,-7.72783 z m -8.68896,60.31066 2.07144,7.72935 2.07144,7.72833 7.72834,-2.07144 -2.07144,-7.72783 -2.07144,-7.72985 z m 4.14288,15.45768 -7.72934,2.07144 -7.72834,2.07144 -7.72783,2.07144 -7.72834,2.07144 -7.72783,2.07144 -7.72985,2.07145 -7.72783,2.07144 2.07144,7.72783 7.72834,-2.07144 7.72934,-2.07144 7.72834,-2.07144 7.72783,-2.07144 7.72834,-2.07144 7.72783,-2.07144 7.72985,-2.07144 z m -54.09936,14.49605 -2.071437,-7.72833 -7.72834,2.07144 2.07144,7.72783 z m -10.354177,-38.64218 -7.728337,2.07144 2.07144,7.72783 7.727833,-2.07144 z m 15.457677,-4.14288 7.72784,-2.07145 2.07144,7.72834 2.07144,7.72783 -7.72834,2.07144 -2.07144,-7.72833 z m 15.45617,-4.14289 7.72784,-2.07144 2.07143,7.72834 2.07145,7.72783 -7.72834,2.07144 -2.07144,-7.72833 z"
       style="fill:#ffd359;stroke-width:3.15"
       id="path1"
       inkscape:label="trumpet" />
  </g>
</svg>
