<?xml version="1.0" encoding="UTF-8" standalone="no"?>
<svg
   version="1.1"
   width="20"
   height="20"
   shape-rendering="crispEdges"
   id="svg72"
   sodipodi:docname="boto.svg"
   inkscape:version="1.4 (e7c3feb100, 2024-10-09)"
   xmlns:inkscape="http://www.inkscape.org/namespaces/inkscape"
   xmlns:sodipodi="http://sodipodi.sourceforge.net/DTD/sodipodi-0.dtd"
   xmlns="http://www.w3.org/2000/svg"
   xmlns:svg="http://www.w3.org/2000/svg">
  <defs
     id="defs72" />
  <sodipodi:namedview
     id="namedview72"
     pagecolor="#ffffff"
     bordercolor="#000000"
     borderopacity="0.25"
     inkscape:showpageshadow="2"
     inkscape:pageopacity="0.0"
     inkscape:pagecheckerboard="0"
     inkscape:deskcolor="#d1d1d1"
     inkscape:zoom="29.174464"
     inkscape:cx="8.3977551"
     inkscape:cy="9.5460195"
     inkscape:window-width="1536"
     inkscape:window-height="792"
     inkscape:window-x="0"
     inkscape:window-y="0"
     inkscape:window-maximized="1"
     inkscape:current-layer="layer1" />
  <g
     inkscape:groupmode="layer"
     id="layer1"
     inkscape:label="boto">
    <path
       d="M 10,1 V 2 H 9 v 1 h 1 1 V 2 h 1 V 1 H 11 Z M 3,5 v 1 1 1 1 1 1 1 1 h 1 1 1 1 1 1 1 1 1 1 1 1 1 1 V 12 11 10 9 8 7 6 5 H 16 15 14 13 12 11 10 9 8 7 6 5 4 Z m 1,1 h 1 1 1 1 1 1 1 1 v 1 1 1 1 1 1 H 11 10 9 8 7 6 5 4 V 11 10 9 8 7 Z m 9,0 h 1 1 1 v 1 1 1 1 1 1 H 15 14 13 V 11 10 9 8 7 Z m -7,8 v 1 1 1 1 H 5 4 v 1 h 1 1 1 v -1 -1 -1 -1 -1 z m 7,0 v 1 1 1 1 h -1 -1 v 1 h 1 1 1 v -1 -1 -1 -1 -1 z"
       style="fill:#ffffff;fill-opacity:1"
       id="path75"
       inkscape:label="body" />
    <path
       d="m 5,7 v 1 1 1 1 H 6 V 10 9 8 7 Z m 5,0 v 1 1 1 1 h 1 V 10 9 8 7 Z"
       style="fill:#ffffff;fill-opacity:1"
       id="path76"
       inkscape:label="eyes" />
  </g>
</svg>
