<?xml version="1.0" encoding="UTF-8" standalone="no"?>
<svg
   version="1.1"
   width="1080"
   height="1080"
   shape-rendering="crispEdges"
   id="svg276"
   sodipodi:docname="F1.svg"
   inkscape:version="1.4 (e7c3feb100, 2024-10-09)"
   xml:space="preserve"
   xmlns:inkscape="http://www.inkscape.org/namespaces/inkscape"
   xmlns:sodipodi="http://sodipodi.sourceforge.net/DTD/sodipodi-0.dtd"
   xmlns="http://www.w3.org/2000/svg"
   xmlns:svg="http://www.w3.org/2000/svg"><defs
     id="defs276"><inkscape:path-effect
       effect="fillet_chamfer"
       id="path-effect1"
       is_visible="true"
       lpeversion="1"
       nodesatellites_param="F,0,0,1,0,6.35,0,1 @ F,0,0,1,0,6.35,0,1 @ F,0,0,1,0,6.35,0,1 @ F,0,0,1,0,6.35,0,1"
       radius="24"
       unit="px"
       method="auto"
       mode="F"
       chamfer_steps="1"
       flexible="false"
       use_knot_distance="true"
       apply_no_radius="true"
       apply_with_radius="true"
       only_selected="false"
       hide_knots="false" /><inkscape:path-effect
       effect="fillet_chamfer"
       id="path-effect1-9"
       is_visible="true"
       lpeversion="1"
       nodesatellites_param="F,0,0,1,0,6.35,0,1 @ F,0,0,1,0,6.35,0,1 @ F,0,0,1,0,6.35,0,1 @ F,0,0,1,0,6.35,0,1"
       radius="24"
       unit="px"
       method="auto"
       mode="F"
       chamfer_steps="1"
       flexible="false"
       use_knot_distance="true"
       apply_no_radius="true"
       apply_with_radius="true"
       only_selected="false"
       hide_knots="false" /></defs><sodipodi:namedview
     id="namedview276"
     pagecolor="#ffffff"
     bordercolor="#000000"
     borderopacity="0.25"
     inkscape:showpageshadow="2"
     inkscape:pageopacity="0.0"
     inkscape:pagecheckerboard="0"
     inkscape:deskcolor="#d1d1d1"
     inkscape:zoom="0.57747055"
     inkscape:cx="540.28729"
     inkscape:cy="551.54328"
     inkscape:window-width="1536"
     inkscape:window-height="792"
     inkscape:window-x="0"
     inkscape:window-y="0"
     inkscape:window-maximized="1"
     inkscape:current-layer="layer3" /><g
     inkscape:groupmode="layer"
     id="layer3"
     inkscape:label="Layer 1"><rect
       style="fill:#000000;fill-opacity:1;stroke-width:20;stroke-linecap:round;stroke-linejoin:round;stroke-miterlimit:4.4"
       id="rect1"
       width="1080"
       height="1080"
       x="0"
       y="-1080"
       inkscape:label="background"
       transform="scale(1,-1)" /><g
       id="g5"
       inkscape:label="frame"><path
         d="M 0,0 V 1080 H 1080 V 0 Z m 132,120 h 816 c 1.45093,0.0269 2.88495,0.31674 4.23242,0.85547 0.45052,0.17122 0.8332,0.41663 1.25586,0.63867 0.84682,0.43512 1.63885,0.96948 2.35938,1.5918 0.3852,0.33898 0.72742,0.6812 1.0664,1.0664 0.62232,0.72053 1.15668,1.51256 1.5918,2.35938 0.22204,0.42266 0.46745,0.80534 0.63867,1.25586 0.53873,1.34747 0.82858,2.78149 0.85547,4.23242 v 816 c 0,6.62737 -5.37263,12 -12,12 H 132 c -6.62735,0 -12,-5.37265 -12,-12 V 132 c 0,-6.62734 5.37266,-12 12,-12 z"
         style="fill:#0d9cd9;fill-opacity:1;stroke-width:18;stroke-linecap:round;stroke-linejoin:round;paint-order:markers stroke fill"
         id="path16"
         inkscape:label="background" /><path
         d="m 132,120 a 12,12 0 0 0 -12,12 v 816 a 12,12 0 0 0 12,12 h 816 a 12,12 0 0 0 12,-12 V 132 c 0,-1.50106 -0.3521,-2.90795 -0.85547,-4.23242 a 12,12 0 0 0 -0.63867,-1.25586 c -0.4459,-0.84879 -0.96379,-1.64574 -1.5918,-2.35938 a 12,12 0 0 0 -1.0664,-1.0664 c -0.71364,-0.62801 -1.51059,-1.1459 -2.35938,-1.5918 a 12,12 0 0 0 -1.25586,-0.63867 C 950.90795,120.3521 949.50106,120 948,120 Z m 0,12 h 12 804 V 948 H 132 V 144 Z"
         style="fill:#e9f1f5;stroke-width:18;stroke-linecap:round;stroke-linejoin:round;paint-order:markers stroke fill;fill-opacity:1"
         id="path17"
         inkscape:label="frame" /><g
         id="g4"
         inkscape:label="abendiix"><path
           d="m 565.47392,908.86872 c -0.0113,0 -0.0151,0.003 -0.0264,0.003 h -41.7385 v 0.0454 c -0.93853,0 -1.88462,0.0605 -2.83072,0.28875 -3.77529,0.9086 -6.96989,3.58451 -8.70051,7.28633 l -27.84115,59.55205 c -4.28375,9.16747 1.94915,19.95394 11.53122,19.95575 h 27.84116 27.8411 13.92185 55.67966 13.92185 55.67966 13.89585 55.73428 83.47132 27.89064 13.86709 27.89059 13.8985 27.8411 27.841 c 11.4824,-0.004 17.23129,-14.85263 9.1147,-23.53905 l -18.7241,-20.02605 18.7241,-20.0259 c 8.12089,-8.68626 2.3704,-23.5389 -9.1147,-23.54177 h -55.6821 c -0.011,3e-4 -0.015,0.002 -0.03,0.003 h -13.8982 -27.84119 -13.91909 -27.84121 -83.52076 -27.84105 -27.84121 -13.8906 -55.73696 -13.86459 c -0.0113,-1.5e-4 -0.0189,-0.003 -0.0302,-0.003 z"
           style="fill:#e9f1f5;fill-opacity:1;stroke:none;stroke-width:20;stroke-linecap:round;stroke-linejoin:round;paint-order:stroke markers fill"
           id="path3197"
           inkscape:label="outline" /><path
           d="m 523.71152,922.6578 -27.8411,59.55462 h 55.68226 z m 41.7604,0 v 59.55462 h 55.68223 l -27.84113,-29.77603 27.84113,-29.77859 z m 69.60151,0 v 59.55462 h 55.68223 v -29.77603 h -27.84117 l 27.84117,-29.77859 z m 69.60409,0 v 59.55462 h 27.84106 27.83864 V 922.6578 h -27.83864 v 29.77602 z m 69.60151,0 v 59.55462 l 55.68227,-29.77603 z m 69.60151,0 v 59.55462 h 27.84121 V 922.6578 Z m 41.7603,0 v 59.55462 h 27.84117 V 922.6578 Z m 41.76307,0 27.8386,29.77602 27.841,-29.77602 z m 27.8386,29.77602 -27.8386,29.7786 h 55.6796 z"
           style="fill:#051638;stroke:none;stroke-width:20;stroke-linecap:round;stroke-linejoin:round;paint-order:stroke markers fill"
           id="path2"
           inkscape:label="shape" /></g><g
         id="g1"
         inkscape:label="preview_icon"
         transform="translate(-224,32)"><path
           d="m 342,798 v 12 h -12 -12 v 12 h -12 v 12 12 h -12 v 12 12 12 12 12 12 12 h 12 v 12 12 h 12 v 12 h 12 12 v 12 h 12 12 12 12 12 12 v -12 h 12 12 v -12 h 12 v -12 -12 h 12 v -12 -12 -12 -12 -12 -12 -12 h -12 v -12 -12 h -12 v -12 h -12 -12 v -12 h -12 -12 -12 -12 -12 z"
           style="fill:#e9f1f5;fill-opacity:1;stroke:#e9f1f5;stroke-width:20;stroke-linecap:round;stroke-linejoin:round;stroke-dasharray:none;stroke-opacity:1"
           id="path117"
           inkscape:label="outline" /><path
           d="m 354,822 v 12 h 12 12 12 12 v -12 h -12 -12 -12 z m 48,12 v 12 h 12 12 v -12 h -12 z m -48,0 h -12 -12 v 12 h 12 12 z m -36,24 v 12 h 12 v -12 z m 108,0 v 12 h 12 v -12 z m -60,36 v 12 h 12 12 v -12 h -12 z m -72,24 v 12 h 12 v -12 z m 156,0 v 12 h 12 v -12 z m -144,24 v 12 h 12 v -12 z m 12,12 v 12 h 12 12 v -12 h -12 z m 24,12 v 12 h 12 12 12 12 12 12 v -12 h -12 -12 -12 -12 -12 z m 72,0 h 12 12 v -12 h -12 -12 z m 24,-12 h 12 v -12 h -12 z"
           style="fill:#005f87;stroke-width:1"
           id="path114"
           inkscape:label="shadow" /><path
           d="m 366,870 v 12 12 h 12 12 v -12 -12 h -12 z"
           style="fill:#0d9cd9;stroke-width:1"
           id="path116"
           inkscape:label="inner_shape" /><path
           d="m 342,798 v 12 h -12 -12 v 12 h -12 v 12 12 h -12 v 12 12 12 12 12 12 h 12 v 12 12 h 12 v 12 h 12 12 v 12 h 12 12 12 12 12 12 v -12 h 12 12 v -12 h 12 v -12 -12 h 12 v -12 -12 -12 -12 -12 -12 h -12 v -12 -12 h -12 v -12 h -12 -12 v -12 h -12 -12 -12 -12 -12 z m 12,24 h 12 12 12 12 v 12 h 12 12 v 12 12 h 12 v 12 12 12 12 h -12 v 12 12 h -12 -12 v 12 h -12 -12 -12 -12 v -12 h -12 -12 v -12 -12 h -12 v -12 -12 -12 -12 h 12 v -12 -12 h 12 12 z"
           style="fill:#0d9cd9;stroke-width:1"
           id="path115"
           inkscape:label="shape" /></g><g
         id="g3"
         inkscape:label="preview"><rect
           style="fill:#e9f1f5;fill-opacity:1;stroke-width:18;stroke-linecap:round;stroke-linejoin:round;paint-order:markers stroke fill"
           id="rect1-3-1-85-7"
           width="516"
           height="84"
           x="84"
           y="84.000038"
           ry="11.999658"
           inkscape:label="outline" /><path
           d="m 528,96.00024 v 11.99953 11.99977 11.99966 11.99953 11.99977 h 11.99968 11.99968 11.99968 11.99958 c 0.13199,0.002 0.26759,0.002 0.39959,0 1.97144,-0.072 3.89589,-0.62638 5.60145,-1.61732 3.7008,-2.14793 5.97774,-6.10374 5.97634,-10.38257 H 588 V 131.99896 119.99942 107.99965 96 h -11.99978 v 11.99965 11.99977 11.99954 11.99965 H 563.99994 V 131.9992 119.99954 107.99977 h -11.99968 v 11.99977 11.99966 11.99953 H 540.00058 V 131.9992 119.99954 107.99977 96.00024 Z"
           style="fill:#001427;stroke-width:0.999996"
           id="path31"
           inkscape:label="w" /><path
           d="m 468.00227,96 v 0.072 c -0.13199,-0.001 -0.26759,-0.003 -0.39958,0 -1.96514,0.048 -3.88576,0.579582 -5.60132,1.546983 -3.68261,2.159694 -5.94053,6.113327 -5.92937,10.382547 H 456 v 11.99962 11.99962 11.99962 V 156 h 11.9994 11.99939 11.99938 11.99942 11.9994 v -11.99745 h -11.99641 -11.99942 -11.99938 -11.99939 v -11.99962 h 11.99939 11.99938 11.99942 v -11.99962 h -11.99942 -11.99938 -11.99939 v -0.072 -11.9293 h 11.99939 11.99938 11.99942 H 516 V 96.00456 h -11.99941 -11.99942 -11.99938 z"
           style="fill:#001427;stroke-width:9.99995;stroke-linecap:round;stroke-linejoin:round"
           id="path5-0-2-2-9-6-4"
           inkscape:label="e" /><path
           d="m 384,96 v 11.99998 h 11.99998 11.99998 v 11.99998 11.99999 11.99998 H 395.99998 384 v 11.99998 h 11.99998 11.99998 11.99999 11.99999 11.99998 v -11.99998 h -11.99998 -11.99999 v -11.99998 -11.99999 -11.99998 h 11.99999 11.99998 V 96 h -11.99998 -11.99999 -11.99999 -11.99998 z"
           style="fill:#001427;stroke-width:0.999999"
           id="path1"
           inkscape:label="i" /><path
           d="m 312,96 v 11.99998 11.99998 11.99999 h 11.99986 V 119.99996 107.99998 96 Z m 11.99986,35.99995 v 11.99998 h 12.00011 v -11.99998 z m 12.00011,11.99998 v 11.99998 h 11.99998 v -11.99998 z m 11.99998,0 h 11.99986 v -11.99998 h -11.99986 z m 11.99986,-11.99998 h 12.00011 V 119.99996 107.99998 96 h -12.00011 v 11.99998 11.99998 z"
           style="fill:#001427;stroke-width:0.999999"
           id="path29"
           inkscape:label="v" /><path
           d="m 252.00219,96 v 0.072 c -0.132,-0.001 -0.26759,-0.003 -0.39958,0 -1.96503,0.048 -3.88578,0.579582 -5.60134,1.546983 -3.6825,2.159694 -5.94043,6.113327 -5.92927,10.382427 H 240 v 11.99974 11.9995 11.99962 V 156 h 11.99943 11.99943 11.99941 11.99943 11.99942 v -11.99757 h -11.99656 -11.99942 -11.99941 -11.99942 v -11.99962 h 11.99942 11.99941 11.99943 v -11.99962 h -11.99943 -11.99941 -11.99942 v -0.072 -11.93374 h 11.99942 11.99941 11.99943 H 300 V 96 h -11.99943 -11.99943 -11.99941 z"
           style="fill:#001427;stroke-width:9.99995;stroke-linecap:round;stroke-linejoin:round"
           id="path5-0-2-2-9-6"
           inkscape:label="e" /><path
           d="M 168,96.000019 V 108 v 11.99998 11.99999 23.99996 h 11.99998 v -23.99996 h 23.99996 v 11.99998 h 11.99999 v -11.99998 h 11.99998 V 119.99998 108 c 0,-6.64775 -5.35222,-11.999981 -11.99998,-11.999981 h -35.99995 z m 47.99993,47.999931 v 11.99998 h 11.99998 V 143.99995 Z M 179.99998,108 h 5.99999 17.99997 11.99999 v 11.99998 h -29.99996 -5.99999 z"
           style="fill:#001427;stroke-width:9.99999;stroke-linecap:round;stroke-linejoin:round"
           id="path2-3-2-1"
           inkscape:label="r" /><path
           d="m 96,96 v 11.99998 11.99998 11.99999 11.99998 11.99998 h 11.99966 v -11.99998 -11.99998 h 11.99967 11.99968 11.99966 c 0.132,0.002 0.26759,0.002 0.39959,0 1.97143,-0.072 3.8958,-0.6264 5.60144,-1.61736 3.7007,-2.14788 5.97775,-6.10379 5.97631,-10.38275 h 0.024 V 107.99998 96 H 144.00034 132.0008 120.00101 108.00134 Z m 11.99966,11.99998 h 11.99967 11.99968 11.99966 v 11.99998 H 131.999 119.99933 107.99966 Z"
           style="fill:#001427;stroke-width:0.999997"
           id="path27-7-5-7"
           inkscape:label="p" /></g></g></g></svg>
