<?xml version="1.0" encoding="UTF-8" standalone="no"?>
<svg
   version="1.1"
   width="18"
   height="20"
   shape-rendering="crispEdges"
   id="svg130"
   sodipodi:docname="mibo.svg"
   inkscape:version="1.4 (e7c3feb100, 2024-10-09)"
   xmlns:inkscape="http://www.inkscape.org/namespaces/inkscape"
   xmlns:sodipodi="http://sodipodi.sourceforge.net/DTD/sodipodi-0.dtd"
   xmlns="http://www.w3.org/2000/svg"
   xmlns:svg="http://www.w3.org/2000/svg">
  <defs
     id="defs130" />
  <sodipodi:namedview
     id="namedview130"
     pagecolor="#ffffff"
     bordercolor="#000000"
     borderopacity="0.25"
     inkscape:showpageshadow="2"
     inkscape:pageopacity="0.0"
     inkscape:pagecheckerboard="0"
     inkscape:deskcolor="#d1d1d1"
     inkscape:zoom="20.612163"
     inkscape:cx="9.4846913"
     inkscape:cy="10.988658"
     inkscape:window-width="1536"
     inkscape:window-height="792"
     inkscape:window-x="0"
     inkscape:window-y="0"
     inkscape:window-maximized="1"
     inkscape:current-layer="g135" />
  <g
     id="g135"
     inkscape:label="mibo">
    <path
       d="m 15,15 v 1 h 1 v -1 z"
       style="fill:#ffffff"
       id="path132"
       inkscape:label="wheelPart" />
    <path
       d="m 9,14 v 1 h 1 1 v -1 h -1 z m 2,1 v 1 1 h 1 v -1 -1 z m 0,2 H 10 V 16 H 9 V 15 H 8 v 1 1 h 1 v 1 h 1 1 z"
       style="fill:#ffffff"
       id="path131"
       inkscape:label="wheel2" />
    <path
       d="m 3,14 v 1 h 1 v 1 h 1 v 1 H 6 V 16 15 H 5 V 14 H 4 Z m 2,3 H 4 3 v 1 H 4 5 Z M 3,17 V 16 15 H 2 v 1 1 z"
       style="fill:#ffffff"
       id="path130"
       inkscape:label="wheel1" />
    <path
       d="m 13,2 v 1 1 1 1 1 h 1 V 6 5 4 3 2 Z"
       style="fill:#ffffff"
       id="path134"
       inkscape:label="eye2" />
    <path
       d="M 8,2 V 3 4 5 6 7 H 9 V 6 5 4 3 2 Z"
       style="fill:#ffffff"
       id="path135"
       inkscape:label="eye1" />
    <path
       d="m 2,0 v 1 1 1 1 1 1 1 1 1 h 1 1 1 1 1 1 1 1 1 1 1 1 1 1 V 8 7 6 5 4 3 2 1 0 H 15 14 13 12 11 10 9 8 7 6 5 4 3 Z M 3,1 H 4 5 6 V 2 3 4 5 6 7 8 H 5 4 3 V 7 6 5 4 3 2 Z m 4,0 h 1 1 1 1 1 1 1 1 V 2 3 4 5 6 7 8 H 14 13 12 11 10 9 8 7 V 7 6 5 4 3 2 Z m -1,9 v 1 1 H 5 4 3 2 v 1 h 1 1 1 1 1 1 1 1 1 1 v 1 h 1 v -1 h 1 v 1 h 1 v -1 h 1 v -1 h -1 -1 -1 -1 v -1 -1 h -1 v 1 1 H 10 9 8 7 v -1 -1 z m 10,3 v 1 h 1 v -1 z m 1,1 v 1 1 1 1 h 1 v -1 -1 -1 -1 z m 0,4 h -1 v 1 h 1 z m -1,1 h -1 -1 -1 v -1 h -1 v 1 H 11 10 9 8 7 6 5 4 3 2 v 1 h 1 1 1 1 1 1 1 1 1 1 1 1 1 1 z M 2,19 V 18 H 1 v 1 z M 1,18 V 17 16 15 14 H 0 v 1 1 1 1 z M 1,14 H 2 V 13 H 1 Z m 12,4 h 1 v -1 -1 -1 -1 h -1 v 1 1 1 z m 3,0 v -1 h -1 v 1 z"
       style="fill:#ffffff"
       id="path133"
       inkscape:label="body" />
  </g>
</svg>
