<?xml version="1.0" encoding="UTF-8" standalone="no"?>
<!-- Created with Inkscape (http://www.inkscape.org/) -->

<svg
   width="1080"
   height="1920"
   viewBox="0 0 285.74999 508"
   version="1.1"
   id="svg1"
   inkscape:version="1.4 (e7c3feb100, 2024-10-09)"
   sodipodi:docname="resource_V.svg"
   xml:space="preserve"
   xmlns:inkscape="http://www.inkscape.org/namespaces/inkscape"
   xmlns:sodipodi="http://sodipodi.sourceforge.net/DTD/sodipodi-0.dtd"
   xmlns="http://www.w3.org/2000/svg"
   xmlns:svg="http://www.w3.org/2000/svg"><sodipodi:namedview
     id="namedview1"
     pagecolor="#ffffff"
     bordercolor="#000000"
     borderopacity="0.25"
     inkscape:showpageshadow="2"
     inkscape:pageopacity="0.0"
     inkscape:pagecheckerboard="0"
     inkscape:deskcolor="#d1d1d1"
     inkscape:document-units="mm"
     inkscape:zoom="0.37427491"
     inkscape:cx="304.58895"
     inkscape:cy="1318.5495"
     inkscape:window-width="1536"
     inkscape:window-height="792"
     inkscape:window-x="0"
     inkscape:window-y="0"
     inkscape:window-maximized="1"
     inkscape:current-layer="layer1" /><defs
     id="defs1" /><g
     inkscape:label="Layer 1"
     inkscape:groupmode="layer"
     id="layer1"><rect
       width="285.75"
       height="508"
       id="rect1"
       x="0"
       y="0"
       style="stroke-width:0.793749;fill:#000000;fill-opacity:1"
       inkscape:label="background" /><g
       style="shape-rendering:crispEdges"
       id="g1"
       transform="matrix(5.55625,0,0,5.55625,80.168652,160.86658)"
       inkscape:label="mibo"><g
         id="g135"
         inkscape:label="mibo"><path
           d="m 15,15 v 1 h 1 v -1 z"
           style="fill:#ffffff"
           id="path132"
           inkscape:label="wheelPart" /><path
           d="m 9,14 v 1 h 1 1 v -1 h -1 z m 2,1 v 1 1 h 1 v -1 -1 z m 0,2 H 10 V 16 H 9 V 15 H 8 v 1 1 h 1 v 1 h 1 1 z"
           style="fill:#ffffff"
           id="path131"
           inkscape:label="wheel2" /><path
           d="m 3,14 v 1 h 1 v 1 h 1 v 1 H 6 V 16 15 H 5 V 14 H 4 Z m 2,3 H 4 3 v 1 H 4 5 Z M 3,17 V 16 15 H 2 v 1 1 z"
           style="fill:#ffffff"
           id="path130"
           inkscape:label="wheel1" /><path
           d="m 13,2 v 1 1 1 1 1 h 1 V 6 5 4 3 2 Z"
           style="fill:#ffffff"
           id="path134"
           inkscape:label="eye2" /><path
           d="M 8,2 V 3 4 5 6 7 H 9 V 6 5 4 3 2 Z"
           style="fill:#ffffff"
           id="path135"
           inkscape:label="eye1" /><path
           d="m 2,0 v 1 1 1 1 1 1 1 1 1 h 1 1 1 1 1 1 1 1 1 1 1 1 1 1 V 8 7 6 5 4 3 2 1 0 H 15 14 13 12 11 10 9 8 7 6 5 4 3 Z M 3,1 H 4 5 6 V 2 3 4 5 6 7 8 H 5 4 3 V 7 6 5 4 3 2 Z m 4,0 h 1 1 1 1 1 1 1 1 V 2 3 4 5 6 7 8 H 14 13 12 11 10 9 8 7 V 7 6 5 4 3 2 Z m -1,9 v 1 1 H 5 4 3 2 v 1 h 1 1 1 1 1 1 1 1 1 1 v 1 h 1 v -1 h 1 v 1 h 1 v -1 h 1 v -1 h -1 -1 -1 -1 v -1 -1 h -1 v 1 1 H 10 9 8 7 v -1 -1 z m 10,3 v 1 h 1 v -1 z m 1,1 v 1 1 1 1 h 1 v -1 -1 -1 -1 z m 0,4 h -1 v 1 h 1 z m -1,1 h -1 -1 -1 v -1 h -1 v 1 H 11 10 9 8 7 6 5 4 3 2 v 1 h 1 1 1 1 1 1 1 1 1 1 1 1 1 1 z M 2,19 V 18 H 1 v 1 z M 1,18 V 17 16 15 14 H 0 v 1 1 1 1 z M 1,14 H 2 V 13 H 1 Z m 12,4 h 1 v -1 -1 -1 -1 h -1 v 1 1 1 z m 3,0 v -1 h -1 v 1 z"
           style="fill:#ffffff"
           id="path133"
           inkscape:label="body" /></g></g></g></svg>
