<?xml version="1.0" encoding="UTF-8" standalone="no"?>
<!-- Created with Inkscape (http://www.inkscape.org/) -->

<svg
   width="1080"
   height="1920"
   viewBox="0 0 285.74999 508"
   version="1.1"
   id="svg1"
   xml:space="preserve"
   inkscape:version="1.3.2 (091e20ef0f, 2023-11-25, custom)"
   sodipodi:docname="F6.svg"
   xmlns:inkscape="http://www.inkscape.org/namespaces/inkscape"
   xmlns:sodipodi="http://sodipodi.sourceforge.net/DTD/sodipodi-0.dtd"
   xmlns="http://www.w3.org/2000/svg"
   xmlns:svg="http://www.w3.org/2000/svg"><sodipodi:namedview
     id="namedview1"
     pagecolor="#ffffff"
     bordercolor="#000000"
     borderopacity="0.25"
     inkscape:showpageshadow="2"
     inkscape:pageopacity="0.0"
     inkscape:pagecheckerboard="0"
     inkscape:deskcolor="#d1d1d1"
     inkscape:document-units="mm"
     inkscape:zoom="0.13095539"
     inkscape:cx="-320.7199"
     inkscape:cy="2054.1346"
     inkscape:window-width="1536"
     inkscape:window-height="792"
     inkscape:window-x="0"
     inkscape:window-y="0"
     inkscape:window-maximized="1"
     inkscape:current-layer="svg1" /><defs
     id="defs1" /><path
     d="M 0,0 V 508 H 285.75 V 0 Z m 58.20833,89.958325 h 142.875 c 1.46125,0 2.64584,1.18459 2.64584,2.64584 V 362.47917 c 0,1.46124 -1.18459,2.64583 -2.64584,2.64583 h -142.875 c -1.46124,0 -2.64583,-1.18459 -2.64583,-2.64583 V 92.604165 c 0,-1.46125 1.18458,-2.64584 2.64583,-2.64584 z"
     style="fill:#fa8805;fill-opacity:1;stroke-width:5.29167;stroke-linecap:round;stroke-linejoin:round;stroke-miterlimit:4.4"
     id="path1"
     inkscape:label="background" /><path
     d="m 58.20833,89.958325 c -1.46122,0 -2.64584,1.18462 -2.64584,2.64584 V 362.47917 c 0,1.46124 1.18459,2.64583 2.64584,2.64583 h 142.875 c 1.46124,0 2.64584,-1.1846 2.64584,-2.64583 V 92.604165 c 0,-1.46123 -1.18461,-2.64584 -2.64584,-2.64584 z m 0,2.64584 h 2.64583 137.58334 2.64583 v 2.64583 264.583335 2.64584 H 198.4375 60.85416 58.20833 V 359.83333 95.249995 Z"
     style="fill:#f5efe9;stroke-width:5.29167;stroke-linecap:round;stroke-linejoin:round;stroke-miterlimit:4.4"
     id="path1-9"
     inkscape:label="frame" /></svg>
