<?xml version="1.0" encoding="UTF-8" standalone="no"?>
<svg
   version="1.1"
   width="1080"
   height="1080"
   shape-rendering="crispEdges"
   id="svg276"
   sodipodi:docname="preview_S.svg"
   inkscape:version="1.4.2 (ebf0e940d0, 2025-05-08)"
   xml:space="preserve"
   xmlns:inkscape="http://www.inkscape.org/namespaces/inkscape"
   xmlns:sodipodi="http://sodipodi.sourceforge.net/DTD/sodipodi-0.dtd"
   xmlns="http://www.w3.org/2000/svg"
   xmlns:svg="http://www.w3.org/2000/svg"><defs
     id="defs276" /><sodipodi:namedview
     id="namedview276"
     pagecolor="#ffffff"
     bordercolor="#000000"
     borderopacity="0.25"
     inkscape:showpageshadow="2"
     inkscape:pageopacity="0.0"
     inkscape:pagecheckerboard="0"
     inkscape:deskcolor="#d1d1d1"
     inkscape:zoom="0.28873528"
     inkscape:cx="271.87534"
     inkscape:cy="767.13869"
     inkscape:window-width="1536"
     inkscape:window-height="792"
     inkscape:window-x="0"
     inkscape:window-y="0"
     inkscape:window-maximized="1"
     inkscape:current-layer="svg276" /><g
     id="g2"
     transform="translate(1019.601,-950.101)"><rect
       style="fill:#005f87;fill-opacity:1;stroke:none;stroke-width:34.1332;stroke-linecap:round;stroke-linejoin:round;stroke-miterlimit:4.4;paint-order:stroke fill markers"
       id="rect2-3-10-6-7"
       width="166.39934"
       height="172.79959"
       x="-106"
       y="1123" /><g
       id="g1"
       inkscape:label="preview_icon"
       transform="matrix(0.55555408,0,0,0.55555408,-232.79977,716.06777)"><path
         d="m 342,798 v 12 h -12 -12 v 12 h -12 v 12 12 h -12 v 12 12 12 12 12 12 12 h 12 v 12 12 h 12 v 12 h 12 12 v 12 h 12 12 12 12 12 12 v -12 h 12 12 v -12 h 12 v -12 -12 h 12 v -12 -12 -12 -12 -12 -12 -12 h -12 v -12 -12 h -12 v -12 h -12 -12 v -12 h -12 -12 -12 -12 -12 z"
         style="fill:#e9f1f5;fill-opacity:1;stroke:#e9f1f5;stroke-width:20;stroke-linecap:round;stroke-linejoin:round;stroke-dasharray:none;stroke-opacity:1"
         id="path117"
         inkscape:label="outline" /><path
         d="m 354,822 v 12 h 12 12 12 12 v -12 h -12 -12 -12 z m 48,12 v 12 h 12 12 v -12 h -12 z m -48,0 h -12 -12 v 12 h 12 12 z m -36,24 v 12 h 12 v -12 z m 108,0 v 12 h 12 v -12 z m -60,36 v 12 h 12 12 v -12 h -12 z m -72,24 v 12 h 12 v -12 z m 156,0 v 12 h 12 v -12 z m -144,24 v 12 h 12 v -12 z m 12,12 v 12 h 12 12 v -12 h -12 z m 24,12 v 12 h 12 12 12 12 12 12 v -12 h -12 -12 -12 -12 -12 z m 72,0 h 12 12 v -12 h -12 -12 z m 24,-12 h 12 v -12 h -12 z"
         style="fill:#005f87;stroke-width:1"
         id="path114"
         inkscape:label="shadow" /><path
         d="m 366,870 v 12 12 h 12 12 v -12 -12 h -12 z"
         style="fill:#0d9cd9;stroke-width:1"
         id="path116"
         inkscape:label="inner_shape" /><path
         d="m 342,798 v 12 h -12 -12 v 12 h -12 v 12 12 h -12 v 12 12 12 12 12 12 h 12 v 12 12 h 12 v 12 h 12 12 v 12 h 12 12 12 12 12 12 v -12 h 12 12 v -12 h 12 v -12 -12 h 12 v -12 -12 -12 -12 -12 -12 h -12 v -12 -12 h -12 v -12 h -12 -12 v -12 h -12 -12 -12 -12 -12 z m 12,24 h 12 12 12 12 v 12 h 12 12 v 12 12 h 12 v 12 12 12 12 h -12 v 12 12 h -12 -12 v 12 h -12 -12 -12 -12 v -12 h -12 -12 v -12 -12 h -12 v -12 -12 -12 -12 h 12 v -12 -12 h 12 12 z"
         style="fill:#0d9cd9;stroke-width:1"
         id="path115"
         inkscape:label="shape" /></g></g></svg>
