<?xml version="1.0" encoding="UTF-8" standalone="no"?>
<!-- Created with Inkscape (http://www.inkscape.org/) -->

<svg
   width="1080"
   height="1920"
   viewBox="0 0 285.74999 508"
   version="1.1"
   id="svg1"
   inkscape:version="1.3.2 (091e20ef0f, 2023-11-25, custom)"
   sodipodi:docname="resource_V.svg"
   xmlns:inkscape="http://www.inkscape.org/namespaces/inkscape"
   xmlns:sodipodi="http://sodipodi.sourceforge.net/DTD/sodipodi-0.dtd"
   xmlns="http://www.w3.org/2000/svg"
   xmlns:svg="http://www.w3.org/2000/svg">
  <sodipodi:namedview
     id="namedview1"
     pagecolor="#ffffff"
     bordercolor="#000000"
     borderopacity="0.25"
     inkscape:showpageshadow="2"
     inkscape:pageopacity="0.0"
     inkscape:pagecheckerboard="0"
     inkscape:deskcolor="#d1d1d1"
     inkscape:document-units="mm"
     inkscape:zoom="0.40946315"
     inkscape:cx="752.20444"
     inkscape:cy="1079.4622"
     inkscape:window-width="1536"
     inkscape:window-height="792"
     inkscape:window-x="0"
     inkscape:window-y="0"
     inkscape:window-maximized="1"
     inkscape:current-layer="layer1" />
  <defs
     id="defs1" />
  <g
     inkscape:label="Layer 1"
     inkscape:groupmode="layer"
     id="layer1">
    <rect
       width="285.75"
       height="508"
       id="rect1"
       x="0"
       y="0"
       style="stroke-width:0.793749;fill:#ffffff;fill-opacity:1"
       inkscape:label="background" />
    <path
       d="m 142.33442,212.20699 v 6.34992 h -6.34992 v 6.34993 6.35017 6.34992 6.34993 6.35016 h 6.34992 v 6.34993 h 6.34993 6.35016 6.34993 v -6.34993 h 6.34993 v 6.34993 h 6.35016 6.34993 v -6.34993 -6.35016 -6.34993 -6.34992 -6.35017 -6.34993 -6.34992 h -6.34993 -6.35016 -6.34993 -6.34993 -6.35016 z m 6.34993,12.69985 h 6.35016 6.34993 6.34993 v 6.35017 6.34992 h -6.34993 v 6.34993 h -6.34993 -6.35016 v -6.34993 -6.34992 z"
       id="path93"
       inkscape:label="a"
       style="stroke-width:6.35001" />
    <path
       d="m 85.18435,193.15697 v 6.34993 h -6.349926 v 6.34992 6.35017 6.34992 6.34993 6.35017 6.34992 6.34993 6.35016 6.34993 h 6.349926 6.349926 v -6.34993 -6.35016 h 6.350164 6.34994 6.34993 6.35017 v 6.35016 6.34993 h 6.34992 6.34993 v -6.34993 -6.35016 -6.34993 -6.34992 -6.35017 -6.34993 -6.34992 -6.35017 -6.34992 h -6.34993 v -6.34993 h -6.34992 -6.35017 -6.34993 -6.34994 -6.350164 z m 6.349926,12.69985 h 6.350164 6.34994 6.34993 6.35017 v 6.35017 6.34992 6.34993 6.35017 h -6.35017 -6.34993 -6.34994 -6.350164 v -6.35017 -6.34993 -6.34992 z"
       id="path92"
       inkscape:label="A"
       style="stroke-width:6.35001" />
  </g>
</svg>
