<?xml version="1.0" encoding="UTF-8" standalone="no"?>
<svg
   version="1.1"
   width="1080"
   height="1080"
   shape-rendering="crispEdges"
   id="svg276"
   sodipodi:docname="F7.svg"
   inkscape:version="1.3.2 (091e20ef0f, 2023-11-25, custom)"
   xmlns:inkscape="http://www.inkscape.org/namespaces/inkscape"
   xmlns:sodipodi="http://sodipodi.sourceforge.net/DTD/sodipodi-0.dtd"
   xmlns="http://www.w3.org/2000/svg"
   xmlns:svg="http://www.w3.org/2000/svg">
  <defs
     id="defs276" />
  <sodipodi:namedview
     id="namedview276"
     pagecolor="#ffffff"
     bordercolor="#000000"
     borderopacity="0.25"
     inkscape:showpageshadow="2"
     inkscape:pageopacity="0.0"
     inkscape:pagecheckerboard="0"
     inkscape:deskcolor="#d1d1d1"
     inkscape:zoom="3.2666667"
     inkscape:cx="123.67347"
     inkscape:cy="118.16326"
     inkscape:window-width="1536"
     inkscape:window-height="792"
     inkscape:window-x="0"
     inkscape:window-y="0"
     inkscape:window-maximized="1"
     inkscape:current-layer="svg276" />
  <path
     d="M 0,0 V 1080 H 1080 V 0 Z m 96,84 h 888 c 6.62735,0 12,5.372646 12,12 v 888 c 0,6.62737 -5.37263,12 -12,12 H 96 c -6.62738,0 -12,-5.37262 -12,-12 V 96 c 0,-6.627344 5.37266,-12 12,-12 z"
     style="fill:#e30048;stroke-width:18;stroke-linecap:round;stroke-linejoin:round;paint-order:markers stroke fill;fill-opacity:1"
     id="path6"
     inkscape:label="background" />
  <path
     d="m 96,84 c -6.627393,0 -12,5.372603 -12,12 v 888 c 0,6.62739 5.372607,12 12,12 h 888 c 6.62739,0 12,-5.37261 12,-12 V 96 c 0,-6.627393 -5.37261,-12 -12,-12 z m 0,12 h 876 12 v 12 876 H 96 Z"
     style="fill:#f5e9ec;stroke-width:18;stroke-linecap:round;stroke-linejoin:round;paint-order:markers stroke fill;fill-opacity:1"
     id="path7"
     inkscape:label="frame" />
</svg>
