<?xml version="1.0" encoding="UTF-8" ?>
<svg version="1.1" width="200" height="200" xmlns="http://www.w3.org/2000/svg" shape-rendering="crispEdges">
<rect x="85" y="95" width="1" height="1" fill="#F5E9EC" />
<rect x="86" y="95" width="1" height="1" fill="#F5E9EC" />
<rect x="91" y="95" width="1" height="1" fill="#F5E9EC" />
<rect x="92" y="95" width="1" height="1" fill="#F5E9EC" />
<rect x="94" y="95" width="1" height="1" fill="#F5E9EC" />
<rect x="95" y="95" width="1" height="1" fill="#F5E9EC" />
<rect x="96" y="95" width="1" height="1" fill="#F5E9EC" />
<rect x="97" y="95" width="1" height="1" fill="#F5E9EC" />
<rect x="98" y="95" width="1" height="1" fill="#F5E9EC" />
<rect x="99" y="95" width="1" height="1" fill="#F5E9EC" />
<rect x="100" y="95" width="1" height="1" fill="#F5E9EC" />
<rect x="101" y="95" width="1" height="1" fill="#F5E9EC" />
<rect x="103" y="95" width="1" height="1" fill="#F5E9EC" />
<rect x="104" y="95" width="1" height="1" fill="#F5E9EC" />
<rect x="105" y="95" width="1" height="1" fill="#F5E9EC" />
<rect x="106" y="95" width="1" height="1" fill="#F5E9EC" />
<rect x="107" y="95" width="1" height="1" fill="#F5E9EC" />
<rect x="108" y="95" width="1" height="1" fill="#F5E9EC" />
<rect x="109" y="95" width="1" height="1" fill="#F5E9EC" />
<rect x="113" y="95" width="1" height="1" fill="#F5E9EC" />
<rect x="114" y="95" width="1" height="1" fill="#F5E9EC" />
<rect x="85" y="96" width="1" height="1" fill="#F5E9EC" />
<rect x="86" y="96" width="1" height="1" fill="#F5E9EC" />
<rect x="91" y="96" width="1" height="1" fill="#F5E9EC" />
<rect x="92" y="96" width="1" height="1" fill="#F5E9EC" />
<rect x="94" y="96" width="1" height="1" fill="#F5E9EC" />
<rect x="95" y="96" width="1" height="1" fill="#F5E9EC" />
<rect x="96" y="96" width="1" height="1" fill="#F5E9EC" />
<rect x="97" y="96" width="1" height="1" fill="#F5E9EC" />
<rect x="98" y="96" width="1" height="1" fill="#F5E9EC" />
<rect x="99" y="96" width="1" height="1" fill="#F5E9EC" />
<rect x="100" y="96" width="1" height="1" fill="#F5E9EC" />
<rect x="101" y="96" width="1" height="1" fill="#F5E9EC" />
<rect x="103" y="96" width="1" height="1" fill="#F5E9EC" />
<rect x="104" y="96" width="1" height="1" fill="#F5E9EC" />
<rect x="105" y="96" width="1" height="1" fill="#F5E9EC" />
<rect x="106" y="96" width="1" height="1" fill="#F5E9EC" />
<rect x="107" y="96" width="1" height="1" fill="#F5E9EC" />
<rect x="108" y="96" width="1" height="1" fill="#F5E9EC" />
<rect x="109" y="96" width="1" height="1" fill="#F5E9EC" />
<rect x="110" y="96" width="1" height="1" fill="#F5E9EC" />
<rect x="112" y="96" width="1" height="1" fill="#F5E9EC" />
<rect x="113" y="96" width="1" height="1" fill="#F5E9EC" />
<rect x="114" y="96" width="1" height="1" fill="#F5E9EC" />
<rect x="115" y="96" width="1" height="1" fill="#F5E9EC" />
<rect x="85" y="97" width="1" height="1" fill="#F5E9EC" />
<rect x="86" y="97" width="1" height="1" fill="#F5E9EC" />
<rect x="91" y="97" width="1" height="1" fill="#F5E9EC" />
<rect x="92" y="97" width="1" height="1" fill="#F5E9EC" />
<rect x="97" y="97" width="1" height="1" fill="#F5E9EC" />
<rect x="98" y="97" width="1" height="1" fill="#F5E9EC" />
<rect x="103" y="97" width="1" height="1" fill="#F5E9EC" />
<rect x="104" y="97" width="1" height="1" fill="#F5E9EC" />
<rect x="109" y="97" width="1" height="1" fill="#F5E9EC" />
<rect x="110" y="97" width="1" height="1" fill="#F5E9EC" />
<rect x="112" y="97" width="1" height="1" fill="#F5E9EC" />
<rect x="113" y="97" width="1" height="1" fill="#F5E9EC" />
<rect x="114" y="97" width="1" height="1" fill="#F5E9EC" />
<rect x="115" y="97" width="1" height="1" fill="#F5E9EC" />
<rect x="85" y="98" width="1" height="1" fill="#F5E9EC" />
<rect x="86" y="98" width="1" height="1" fill="#F5E9EC" />
<rect x="91" y="98" width="1" height="1" fill="#F5E9EC" />
<rect x="92" y="98" width="1" height="1" fill="#F5E9EC" />
<rect x="97" y="98" width="1" height="1" fill="#F5E9EC" />
<rect x="98" y="98" width="1" height="1" fill="#F5E9EC" />
<rect x="103" y="98" width="1" height="1" fill="#F5E9EC" />
<rect x="104" y="98" width="1" height="1" fill="#F5E9EC" />
<rect x="109" y="98" width="1" height="1" fill="#F5E9EC" />
<rect x="110" y="98" width="1" height="1" fill="#F5E9EC" />
<rect x="112" y="98" width="1" height="1" fill="#F5E9EC" />
<rect x="113" y="98" width="1" height="1" fill="#F5E9EC" />
<rect x="114" y="98" width="1" height="1" fill="#F5E9EC" />
<rect x="115" y="98" width="1" height="1" fill="#F5E9EC" />
<rect x="85" y="99" width="1" height="1" fill="#F5E9EC" />
<rect x="86" y="99" width="1" height="1" fill="#F5E9EC" />
<rect x="88" y="99" width="1" height="1" fill="#F5E9EC" />
<rect x="89" y="99" width="1" height="1" fill="#F5E9EC" />
<rect x="91" y="99" width="1" height="1" fill="#F5E9EC" />
<rect x="92" y="99" width="1" height="1" fill="#F5E9EC" />
<rect x="97" y="99" width="1" height="1" fill="#F5E9EC" />
<rect x="98" y="99" width="1" height="1" fill="#F5E9EC" />
<rect x="103" y="99" width="1" height="1" fill="#F5E9EC" />
<rect x="104" y="99" width="1" height="1" fill="#F5E9EC" />
<rect x="105" y="99" width="1" height="1" fill="#F5E9EC" />
<rect x="106" y="99" width="1" height="1" fill="#F5E9EC" />
<rect x="107" y="99" width="1" height="1" fill="#F5E9EC" />
<rect x="108" y="99" width="1" height="1" fill="#F5E9EC" />
<rect x="109" y="99" width="1" height="1" fill="#F5E9EC" />
<rect x="110" y="99" width="1" height="1" fill="#F5E9EC" />
<rect x="112" y="99" width="1" height="1" fill="#F5E9EC" />
<rect x="113" y="99" width="1" height="1" fill="#F5E9EC" />
<rect x="114" y="99" width="1" height="1" fill="#F5E9EC" />
<rect x="115" y="99" width="1" height="1" fill="#F5E9EC" />
<rect x="85" y="100" width="1" height="1" fill="#F5E9EC" />
<rect x="86" y="100" width="1" height="1" fill="#F5E9EC" />
<rect x="88" y="100" width="1" height="1" fill="#F5E9EC" />
<rect x="89" y="100" width="1" height="1" fill="#F5E9EC" />
<rect x="91" y="100" width="1" height="1" fill="#F5E9EC" />
<rect x="92" y="100" width="1" height="1" fill="#F5E9EC" />
<rect x="97" y="100" width="1" height="1" fill="#F5E9EC" />
<rect x="98" y="100" width="1" height="1" fill="#F5E9EC" />
<rect x="103" y="100" width="1" height="1" fill="#F5E9EC" />
<rect x="104" y="100" width="1" height="1" fill="#F5E9EC" />
<rect x="105" y="100" width="1" height="1" fill="#F5E9EC" />
<rect x="106" y="100" width="1" height="1" fill="#F5E9EC" />
<rect x="107" y="100" width="1" height="1" fill="#F5E9EC" />
<rect x="108" y="100" width="1" height="1" fill="#F5E9EC" />
<rect x="109" y="100" width="1" height="1" fill="#F5E9EC" />
<rect x="113" y="100" width="1" height="1" fill="#F5E9EC" />
<rect x="114" y="100" width="1" height="1" fill="#F5E9EC" />
<rect x="85" y="101" width="1" height="1" fill="#F5E9EC" />
<rect x="86" y="101" width="1" height="1" fill="#F5E9EC" />
<rect x="88" y="101" width="1" height="1" fill="#F5E9EC" />
<rect x="89" y="101" width="1" height="1" fill="#F5E9EC" />
<rect x="91" y="101" width="1" height="1" fill="#F5E9EC" />
<rect x="92" y="101" width="1" height="1" fill="#F5E9EC" />
<rect x="97" y="101" width="1" height="1" fill="#F5E9EC" />
<rect x="98" y="101" width="1" height="1" fill="#F5E9EC" />
<rect x="103" y="101" width="1" height="1" fill="#F5E9EC" />
<rect x="104" y="101" width="1" height="1" fill="#F5E9EC" />
<rect x="113" y="101" width="1" height="1" fill="#F5E9EC" />
<rect x="114" y="101" width="1" height="1" fill="#F5E9EC" />
<rect x="85" y="102" width="1" height="1" fill="#F5E9EC" />
<rect x="86" y="102" width="1" height="1" fill="#F5E9EC" />
<rect x="88" y="102" width="1" height="1" fill="#F5E9EC" />
<rect x="89" y="102" width="1" height="1" fill="#F5E9EC" />
<rect x="91" y="102" width="1" height="1" fill="#F5E9EC" />
<rect x="92" y="102" width="1" height="1" fill="#F5E9EC" />
<rect x="97" y="102" width="1" height="1" fill="#F5E9EC" />
<rect x="98" y="102" width="1" height="1" fill="#F5E9EC" />
<rect x="103" y="102" width="1" height="1" fill="#F5E9EC" />
<rect x="104" y="102" width="1" height="1" fill="#F5E9EC" />
<rect x="85" y="103" width="1" height="1" fill="#F5E9EC" />
<rect x="86" y="103" width="1" height="1" fill="#F5E9EC" />
<rect x="87" y="103" width="1" height="1" fill="#F5E9EC" />
<rect x="88" y="103" width="1" height="1" fill="#F5E9EC" />
<rect x="89" y="103" width="1" height="1" fill="#F5E9EC" />
<rect x="90" y="103" width="1" height="1" fill="#F5E9EC" />
<rect x="91" y="103" width="1" height="1" fill="#F5E9EC" />
<rect x="92" y="103" width="1" height="1" fill="#F5E9EC" />
<rect x="94" y="103" width="1" height="1" fill="#F5E9EC" />
<rect x="95" y="103" width="1" height="1" fill="#F5E9EC" />
<rect x="96" y="103" width="1" height="1" fill="#F5E9EC" />
<rect x="97" y="103" width="1" height="1" fill="#F5E9EC" />
<rect x="98" y="103" width="1" height="1" fill="#F5E9EC" />
<rect x="99" y="103" width="1" height="1" fill="#F5E9EC" />
<rect x="100" y="103" width="1" height="1" fill="#F5E9EC" />
<rect x="101" y="103" width="1" height="1" fill="#F5E9EC" />
<rect x="103" y="103" width="1" height="1" fill="#F5E9EC" />
<rect x="104" y="103" width="1" height="1" fill="#F5E9EC" />
<rect x="113" y="103" width="1" height="1" fill="#F5E9EC" />
<rect x="114" y="103" width="1" height="1" fill="#F5E9EC" />
<rect x="86" y="104" width="1" height="1" fill="#F5E9EC" />
<rect x="87" y="104" width="1" height="1" fill="#F5E9EC" />
<rect x="88" y="104" width="1" height="1" fill="#F5E9EC" />
<rect x="89" y="104" width="1" height="1" fill="#F5E9EC" />
<rect x="90" y="104" width="1" height="1" fill="#F5E9EC" />
<rect x="91" y="104" width="1" height="1" fill="#F5E9EC" />
<rect x="94" y="104" width="1" height="1" fill="#F5E9EC" />
<rect x="95" y="104" width="1" height="1" fill="#F5E9EC" />
<rect x="96" y="104" width="1" height="1" fill="#F5E9EC" />
<rect x="97" y="104" width="1" height="1" fill="#F5E9EC" />
<rect x="98" y="104" width="1" height="1" fill="#F5E9EC" />
<rect x="99" y="104" width="1" height="1" fill="#F5E9EC" />
<rect x="100" y="104" width="1" height="1" fill="#F5E9EC" />
<rect x="101" y="104" width="1" height="1" fill="#F5E9EC" />
<rect x="103" y="104" width="1" height="1" fill="#F5E9EC" />
<rect x="104" y="104" width="1" height="1" fill="#F5E9EC" />
<rect x="113" y="104" width="1" height="1" fill="#F5E9EC" />
<rect x="114" y="104" width="1" height="1" fill="#F5E9EC" />
</svg>