<?xml version="1.0" encoding="UTF-8" ?>
<svg version="1.1" width="200" height="200" xmlns="http://www.w3.org/2000/svg" shape-rendering="crispEdges">
<rect x="85" y="95" width="1" height="1" fill="#F5E9EC" />
<rect x="86" y="95" width="1" height="1" fill="#F5E9EC" />
<rect x="91" y="95" width="1" height="1" fill="#F5E9EC" />
<rect x="92" y="95" width="1" height="1" fill="#F5E9EC" />
<rect x="85" y="96" width="1" height="1" fill="#F5E9EC" />
<rect x="86" y="96" width="1" height="1" fill="#F5E9EC" />
<rect x="91" y="96" width="1" height="1" fill="#F5E9EC" />
<rect x="92" y="96" width="1" height="1" fill="#F5E9EC" />
<rect x="85" y="97" width="1" height="1" fill="#F5E9EC" />
<rect x="86" y="97" width="1" height="1" fill="#F5E9EC" />
<rect x="91" y="97" width="1" height="1" fill="#F5E9EC" />
<rect x="92" y="97" width="1" height="1" fill="#F5E9EC" />
<rect x="85" y="98" width="1" height="1" fill="#F5E9EC" />
<rect x="86" y="98" width="1" height="1" fill="#F5E9EC" />
<rect x="91" y="98" width="1" height="1" fill="#F5E9EC" />
<rect x="92" y="98" width="1" height="1" fill="#F5E9EC" />
<rect x="85" y="99" width="1" height="1" fill="#F5E9EC" />
<rect x="86" y="99" width="1" height="1" fill="#F5E9EC" />
<rect x="88" y="99" width="1" height="1" fill="#F5E9EC" />
<rect x="89" y="99" width="1" height="1" fill="#F5E9EC" />
<rect x="91" y="99" width="1" height="1" fill="#F5E9EC" />
<rect x="92" y="99" width="1" height="1" fill="#F5E9EC" />
<rect x="85" y="100" width="1" height="1" fill="#F5E9EC" />
<rect x="86" y="100" width="1" height="1" fill="#F5E9EC" />
<rect x="88" y="100" width="1" height="1" fill="#F5E9EC" />
<rect x="89" y="100" width="1" height="1" fill="#F5E9EC" />
<rect x="91" y="100" width="1" height="1" fill="#F5E9EC" />
<rect x="92" y="100" width="1" height="1" fill="#F5E9EC" />
<rect x="85" y="101" width="1" height="1" fill="#F5E9EC" />
<rect x="86" y="101" width="1" height="1" fill="#F5E9EC" />
<rect x="88" y="101" width="1" height="1" fill="#F5E9EC" />
<rect x="89" y="101" width="1" height="1" fill="#F5E9EC" />
<rect x="91" y="101" width="1" height="1" fill="#F5E9EC" />
<rect x="92" y="101" width="1" height="1" fill="#F5E9EC" />
<rect x="85" y="102" width="1" height="1" fill="#F5E9EC" />
<rect x="86" y="102" width="1" height="1" fill="#F5E9EC" />
<rect x="88" y="102" width="1" height="1" fill="#F5E9EC" />
<rect x="89" y="102" width="1" height="1" fill="#F5E9EC" />
<rect x="91" y="102" width="1" height="1" fill="#F5E9EC" />
<rect x="92" y="102" width="1" height="1" fill="#F5E9EC" />
<rect x="85" y="103" width="1" height="1" fill="#F5E9EC" />
<rect x="86" y="103" width="1" height="1" fill="#F5E9EC" />
<rect x="87" y="103" width="1" height="1" fill="#F5E9EC" />
<rect x="88" y="103" width="1" height="1" fill="#F5E9EC" />
<rect x="89" y="103" width="1" height="1" fill="#F5E9EC" />
<rect x="90" y="103" width="1" height="1" fill="#F5E9EC" />
<rect x="91" y="103" width="1" height="1" fill="#F5E9EC" />
<rect x="92" y="103" width="1" height="1" fill="#F5E9EC" />
<rect x="86" y="104" width="1" height="1" fill="#F5E9EC" />
<rect x="87" y="104" width="1" height="1" fill="#F5E9EC" />
<rect x="88" y="104" width="1" height="1" fill="#F5E9EC" />
<rect x="89" y="104" width="1" height="1" fill="#F5E9EC" />
<rect x="90" y="104" width="1" height="1" fill="#F5E9EC" />
<rect x="91" y="104" width="1" height="1" fill="#F5E9EC" />
<rect x="85" y="106" width="1" height="1" fill="#F5E9EC" />
<rect x="86" y="106" width="1" height="1" fill="#F5E9EC" />
<rect x="87" y="106" width="1" height="1" fill="#F5E9EC" />
<rect x="88" y="106" width="1" height="1" fill="#F5E9EC" />
<rect x="89" y="106" width="1" height="1" fill="#F5E9EC" />
<rect x="90" y="106" width="1" height="1" fill="#F5E9EC" />
<rect x="91" y="106" width="1" height="1" fill="#F5E9EC" />
<rect x="92" y="106" width="1" height="1" fill="#F5E9EC" />
<rect x="85" y="107" width="1" height="1" fill="#F5E9EC" />
<rect x="86" y="107" width="1" height="1" fill="#F5E9EC" />
<rect x="87" y="107" width="1" height="1" fill="#F5E9EC" />
<rect x="88" y="107" width="1" height="1" fill="#F5E9EC" />
<rect x="89" y="107" width="1" height="1" fill="#F5E9EC" />
<rect x="90" y="107" width="1" height="1" fill="#F5E9EC" />
<rect x="91" y="107" width="1" height="1" fill="#F5E9EC" />
<rect x="92" y="107" width="1" height="1" fill="#F5E9EC" />
<rect x="88" y="108" width="1" height="1" fill="#F5E9EC" />
<rect x="89" y="108" width="1" height="1" fill="#F5E9EC" />
<rect x="88" y="109" width="1" height="1" fill="#F5E9EC" />
<rect x="89" y="109" width="1" height="1" fill="#F5E9EC" />
<rect x="88" y="110" width="1" height="1" fill="#F5E9EC" />
<rect x="89" y="110" width="1" height="1" fill="#F5E9EC" />
<rect x="88" y="111" width="1" height="1" fill="#F5E9EC" />
<rect x="89" y="111" width="1" height="1" fill="#F5E9EC" />
<rect x="88" y="112" width="1" height="1" fill="#F5E9EC" />
<rect x="89" y="112" width="1" height="1" fill="#F5E9EC" />
<rect x="88" y="113" width="1" height="1" fill="#F5E9EC" />
<rect x="89" y="113" width="1" height="1" fill="#F5E9EC" />
<rect x="85" y="114" width="1" height="1" fill="#F5E9EC" />
<rect x="86" y="114" width="1" height="1" fill="#F5E9EC" />
<rect x="87" y="114" width="1" height="1" fill="#F5E9EC" />
<rect x="88" y="114" width="1" height="1" fill="#F5E9EC" />
<rect x="89" y="114" width="1" height="1" fill="#F5E9EC" />
<rect x="90" y="114" width="1" height="1" fill="#F5E9EC" />
<rect x="91" y="114" width="1" height="1" fill="#F5E9EC" />
<rect x="92" y="114" width="1" height="1" fill="#F5E9EC" />
<rect x="85" y="115" width="1" height="1" fill="#F5E9EC" />
<rect x="86" y="115" width="1" height="1" fill="#F5E9EC" />
<rect x="87" y="115" width="1" height="1" fill="#F5E9EC" />
<rect x="88" y="115" width="1" height="1" fill="#F5E9EC" />
<rect x="89" y="115" width="1" height="1" fill="#F5E9EC" />
<rect x="90" y="115" width="1" height="1" fill="#F5E9EC" />
<rect x="91" y="115" width="1" height="1" fill="#F5E9EC" />
<rect x="92" y="115" width="1" height="1" fill="#F5E9EC" />
<rect x="85" y="117" width="1" height="1" fill="#F5E9EC" />
<rect x="86" y="117" width="1" height="1" fill="#F5E9EC" />
<rect x="87" y="117" width="1" height="1" fill="#F5E9EC" />
<rect x="88" y="117" width="1" height="1" fill="#F5E9EC" />
<rect x="89" y="117" width="1" height="1" fill="#F5E9EC" />
<rect x="90" y="117" width="1" height="1" fill="#F5E9EC" />
<rect x="91" y="117" width="1" height="1" fill="#F5E9EC" />
<rect x="85" y="118" width="1" height="1" fill="#F5E9EC" />
<rect x="86" y="118" width="1" height="1" fill="#F5E9EC" />
<rect x="87" y="118" width="1" height="1" fill="#F5E9EC" />
<rect x="88" y="118" width="1" height="1" fill="#F5E9EC" />
<rect x="89" y="118" width="1" height="1" fill="#F5E9EC" />
<rect x="90" y="118" width="1" height="1" fill="#F5E9EC" />
<rect x="91" y="118" width="1" height="1" fill="#F5E9EC" />
<rect x="92" y="118" width="1" height="1" fill="#F5E9EC" />
<rect x="85" y="119" width="1" height="1" fill="#F5E9EC" />
<rect x="86" y="119" width="1" height="1" fill="#F5E9EC" />
<rect x="91" y="119" width="1" height="1" fill="#F5E9EC" />
<rect x="92" y="119" width="1" height="1" fill="#F5E9EC" />
<rect x="85" y="120" width="1" height="1" fill="#F5E9EC" />
<rect x="86" y="120" width="1" height="1" fill="#F5E9EC" />
<rect x="91" y="120" width="1" height="1" fill="#F5E9EC" />
<rect x="92" y="120" width="1" height="1" fill="#F5E9EC" />
<rect x="85" y="121" width="1" height="1" fill="#F5E9EC" />
<rect x="86" y="121" width="1" height="1" fill="#F5E9EC" />
<rect x="87" y="121" width="1" height="1" fill="#F5E9EC" />
<rect x="88" y="121" width="1" height="1" fill="#F5E9EC" />
<rect x="89" y="121" width="1" height="1" fill="#F5E9EC" />
<rect x="90" y="121" width="1" height="1" fill="#F5E9EC" />
<rect x="91" y="121" width="1" height="1" fill="#F5E9EC" />
<rect x="92" y="121" width="1" height="1" fill="#F5E9EC" />
<rect x="85" y="122" width="1" height="1" fill="#F5E9EC" />
<rect x="86" y="122" width="1" height="1" fill="#F5E9EC" />
<rect x="87" y="122" width="1" height="1" fill="#F5E9EC" />
<rect x="88" y="122" width="1" height="1" fill="#F5E9EC" />
<rect x="89" y="122" width="1" height="1" fill="#F5E9EC" />
<rect x="90" y="122" width="1" height="1" fill="#F5E9EC" />
<rect x="91" y="122" width="1" height="1" fill="#F5E9EC" />
<rect x="85" y="123" width="1" height="1" fill="#F5E9EC" />
<rect x="86" y="123" width="1" height="1" fill="#F5E9EC" />
<rect x="85" y="124" width="1" height="1" fill="#F5E9EC" />
<rect x="86" y="124" width="1" height="1" fill="#F5E9EC" />
<rect x="85" y="125" width="1" height="1" fill="#F5E9EC" />
<rect x="86" y="125" width="1" height="1" fill="#F5E9EC" />
<rect x="85" y="126" width="1" height="1" fill="#F5E9EC" />
<rect x="86" y="126" width="1" height="1" fill="#F5E9EC" />
<rect x="88" y="128" width="1" height="1" fill="#F5E9EC" />
<rect x="89" y="128" width="1" height="1" fill="#F5E9EC" />
<rect x="87" y="129" width="1" height="1" fill="#F5E9EC" />
<rect x="88" y="129" width="1" height="1" fill="#F5E9EC" />
<rect x="89" y="129" width="1" height="1" fill="#F5E9EC" />
<rect x="90" y="129" width="1" height="1" fill="#F5E9EC" />
<rect x="87" y="130" width="1" height="1" fill="#F5E9EC" />
<rect x="88" y="130" width="1" height="1" fill="#F5E9EC" />
<rect x="89" y="130" width="1" height="1" fill="#F5E9EC" />
<rect x="90" y="130" width="1" height="1" fill="#F5E9EC" />
<rect x="87" y="131" width="1" height="1" fill="#F5E9EC" />
<rect x="88" y="131" width="1" height="1" fill="#F5E9EC" />
<rect x="89" y="131" width="1" height="1" fill="#F5E9EC" />
<rect x="90" y="131" width="1" height="1" fill="#F5E9EC" />
<rect x="87" y="132" width="1" height="1" fill="#F5E9EC" />
<rect x="88" y="132" width="1" height="1" fill="#F5E9EC" />
<rect x="89" y="132" width="1" height="1" fill="#F5E9EC" />
<rect x="90" y="132" width="1" height="1" fill="#F5E9EC" />
<rect x="88" y="133" width="1" height="1" fill="#F5E9EC" />
<rect x="89" y="133" width="1" height="1" fill="#F5E9EC" />
<rect x="88" y="134" width="1" height="1" fill="#F5E9EC" />
<rect x="89" y="134" width="1" height="1" fill="#F5E9EC" />
<rect x="88" y="136" width="1" height="1" fill="#F5E9EC" />
<rect x="89" y="136" width="1" height="1" fill="#F5E9EC" />
<rect x="88" y="137" width="1" height="1" fill="#F5E9EC" />
<rect x="89" y="137" width="1" height="1" fill="#F5E9EC" />
</svg>