<?xml version="1.0" encoding="UTF-8" standalone="no"?>
<svg
   version="1.1"
   width="1080"
   height="1080"
   shape-rendering="crispEdges"
   id="svg276"
   sodipodi:docname="release_S.svg"
   inkscape:version="1.4.2 (ebf0e940d0, 2025-05-08)"
   xml:space="preserve"
   xmlns:inkscape="http://www.inkscape.org/namespaces/inkscape"
   xmlns:sodipodi="http://sodipodi.sourceforge.net/DTD/sodipodi-0.dtd"
   xmlns="http://www.w3.org/2000/svg"
   xmlns:svg="http://www.w3.org/2000/svg"><defs
     id="defs276" /><sodipodi:namedview
     id="namedview276"
     pagecolor="#ffffff"
     bordercolor="#000000"
     borderopacity="0.25"
     inkscape:showpageshadow="2"
     inkscape:pageopacity="0.0"
     inkscape:pagecheckerboard="0"
     inkscape:deskcolor="#d1d1d1"
     inkscape:zoom="1.1549411"
     inkscape:cx="995.28885"
     inkscape:cy="317.3322"
     inkscape:window-width="1536"
     inkscape:window-height="792"
     inkscape:window-x="0"
     inkscape:window-y="0"
     inkscape:window-maximized="1"
     inkscape:current-layer="svg276" /><g
     id="g1"><g
       id="g2-6-5"
       transform="matrix(3.7795276,0,0,3.7795276,1463.567,-1225.7802)"
       style="fill:#960030;fill-opacity:1"><rect
         style="fill:#960030;fill-opacity:1;stroke:none;stroke-width:9.03107;stroke-linecap:round;stroke-linejoin:round;stroke-miterlimit:4.4;paint-order:stroke fill markers"
         id="rect2-3-10-6"
         width="44.026489"
         height="45.719891"
         x="-145.51183"
         y="370.04074" /></g><g
       id="g2"
       inkscape:label="release_icon"
       transform="matrix(0.55555408,0,0,0.55555408,949.57857,-310.24411)"><path
         d="m 73,935 v 12 H 61 v 12 H 49 v 12 H 37 v 12 H 25 v 12 H 13 v 12 H 1 v 12 12 12 h 12 v 12 h 12 v 12 h 12 v 12 h 12 v 12 h 12 v 12 h 12 v 12 h 12 12 v -12 h 12 v -12 h 12 v -12 h 12 v -12 h 12 v -12 h 12 v -12 h 12 v -12 -12 -12 H 157 V 995 H 145 V 983 H 133 V 971 H 121 V 959 H 109 V 947 H 97 V 935 H 85 Z"
         style="fill:#f5e9ec;fill-opacity:1;stroke:#f5e9ec;stroke-width:20;stroke-linecap:round;stroke-linejoin:round;stroke-dasharray:none;stroke-opacity:1"
         id="path103"
         inkscape:label="outline" /><path
         d="m 73,971 v 12 H 85 97 V 971 H 85 Z m 24,12 v 12 h 12 v -12 z m 12,12 v 12 h 12 v -12 z m 12,12 v 12 h 12 v -12 z M 73,983 H 61 v 12 H 73 Z M 61,995 H 49 v 12 h 12 z m -12,12 H 37 v 12 h 12 z m -48,24 v 12 h 12 v -12 z m 12,12 v 12 h 12 v -12 z m 12,12 v 12 h 12 v -12 z m 12,12 v 12 h 12 v -12 z m 12,12 v 12 h 12 v -12 z m 12,12 v 12 h 12 v -12 z m 12,12 v 12 h 12 12 v -12 H 85 Z m 24,0 h 12 v -12 H 97 Z m 12,-12 h 12 v -12 h -12 z m 12,-12 h 12 v -12 h -12 z m 12,-12 h 12 v -12 h -12 z m 12,-12 h 12 v -12 h -12 z m 12,-12 h 12 v -12 h -12 z m -84,-12 v 12 h 12 12 v -12 H 85 Z"
         style="fill:#960030;stroke-width:1"
         id="path100"
         inkscape:label="shadow" /><path
         d="m 73,1007 v 12 12 h 12 12 v -12 -12 H 85 Z"
         style="fill:#e30048;stroke-width:1"
         id="path102"
         inkscape:label="inner_shape" /><path
         d="m 73,935 v 12 H 61 v 12 H 49 v 12 H 37 v 12 H 25 v 12 H 13 v 12 H 1 v 12 12 h 12 v 12 h 12 v 12 h 12 v 12 h 12 v 12 h 12 v 12 h 12 v 12 h 12 12 v -12 h 12 v -12 h 12 v -12 h 12 v -12 h 12 v -12 h 12 v -12 h 12 v -12 -12 H 157 V 995 H 145 V 983 H 133 V 971 H 121 V 959 H 109 V 947 H 97 V 935 H 85 Z m 0,36 h 12 12 v 12 h 12 v 12 h 12 v 12 h 12 v 12 12 h -12 v 12 h -12 v 12 H 97 v 12 H 85 73 v -12 H 61 v -12 H 49 v -12 H 37 v -12 -12 h 12 v -12 h 12 v -12 h 12 z"
         style="fill:#e30048;stroke-width:1"
         id="path101"
         inkscape:label="shape" /></g></g></svg>
