<?xml version="1.0" encoding="UTF-8" standalone="no"?>
<!-- Created with Inkscape (http://www.inkscape.org/) -->

<svg
   width="1080"
   height="1920"
   viewBox="0 0 285.74999 508"
   version="1.1"
   id="svg1"
   xml:space="preserve"
   inkscape:version="1.3.2 (091e20ef0f, 2023-11-25, custom)"
   sodipodi:docname="F4.svg"
   xmlns:inkscape="http://www.inkscape.org/namespaces/inkscape"
   xmlns:sodipodi="http://sodipodi.sourceforge.net/DTD/sodipodi-0.dtd"
   xmlns="http://www.w3.org/2000/svg"
   xmlns:svg="http://www.w3.org/2000/svg"><sodipodi:namedview
     id="namedview1"
     pagecolor="#ffffff"
     bordercolor="#000000"
     borderopacity="0.25"
     inkscape:showpageshadow="2"
     inkscape:pageopacity="0.0"
     inkscape:pagecheckerboard="0"
     inkscape:deskcolor="#d1d1d1"
     inkscape:document-units="mm"
     inkscape:zoom="0.74079555"
     inkscape:cx="330.72553"
     inkscape:cy="434.66784"
     inkscape:window-width="1536"
     inkscape:window-height="792"
     inkscape:window-x="0"
     inkscape:window-y="0"
     inkscape:window-maximized="1"
     inkscape:current-layer="g5" /><defs
     id="defs1" /><path
     d="M 0,0 V 84.666667 370.41667 508 H 50.270833 209.02083 285.75 V 370.41667 84.666667 0 H 209.02083 50.270833 Z M 52.916667,84.666667 H 206.375 c 1.46125,0 2.64583,1.184585 2.64583,2.645833 v 280.45833 c 0,1.46125 -1.18458,2.64584 -2.64583,2.64584 H 52.916667 c -1.461242,0 -2.645834,-1.18459 -2.645834,-2.64584 V 87.3125 c 0,-1.461245 1.184589,-2.645833 2.645834,-2.645833 z"
     style="fill:#e30048;stroke-width:5.29167;stroke-linecap:round;stroke-linejoin:round;stroke-miterlimit:4.4"
     id="path11"
     inkscape:label="background" /><path
     d="m 52.916667,84.666667 c -1.461233,0 -2.645834,1.1846 -2.645834,2.645833 v 280.45833 c 0,1.46125 1.184583,2.64584 2.645834,2.64584 H 206.375 c 1.46124,0 2.64583,-1.18459 2.64583,-2.64584 V 87.3125 c 0,-1.461239 -1.18459,-2.645833 -2.64583,-2.645833 z m 0,2.645833 H 55.5625 203.72917 206.375 V 89.958333 365.125 367.77083 H 203.72917 55.5625 52.916667 V 365.125 89.958333 Z"
     style="fill:#f5e9ec;stroke-width:5.29167;stroke-linecap:round;stroke-linejoin:round;stroke-miterlimit:4.4"
     id="path10"
     inkscape:label="frame" /><g
     id="g4"
     inkscape:label="abendiix"
     transform="matrix(0.22048442,0,0,0.22048442,130.97043,158.7517)"
     style="stroke-width:1.20001"><path
       d="m 565.47392,908.86872 c -0.0113,0 -0.0151,0.003 -0.0264,0.003 h -41.7385 v 0.0454 c -0.93853,0 -1.88462,0.0605 -2.83072,0.28875 -3.77529,0.9086 -6.96989,3.58451 -8.70051,7.28633 l -27.84115,59.55205 c -4.28375,9.16747 1.94915,19.95394 11.53122,19.95575 h 27.84116 27.8411 13.92185 55.67966 13.92185 55.67966 13.89585 55.73428 83.47132 27.89064 13.86709 27.89059 13.8985 27.8411 27.841 c 11.4824,-0.004 17.23129,-14.85263 9.1147,-23.53905 l -18.7241,-20.02605 18.7241,-20.0259 c 8.12089,-8.68626 2.3704,-23.5389 -9.1147,-23.54177 h -55.6821 c -0.011,3e-4 -0.015,0.002 -0.03,0.003 h -13.8982 -27.84119 -13.91909 -27.84121 -83.52076 -27.84105 -27.84121 -13.8906 -55.73696 -13.86459 c -0.0113,-1.5e-4 -0.0189,-0.003 -0.0302,-0.003 z"
       style="fill:#f5e9ec;fill-opacity:1;stroke:none;stroke-width:24.0002;stroke-linecap:round;stroke-linejoin:round;paint-order:stroke markers fill"
       id="path3197"
       inkscape:label="outline" /><path
       d="m 523.71152,922.6578 -27.8411,59.55462 h 55.68226 z m 41.7604,0 v 59.55462 h 55.68223 l -27.84113,-29.77603 27.84113,-29.77859 z m 69.60151,0 v 59.55462 h 55.68223 v -29.77603 h -27.84117 l 27.84117,-29.77859 z m 69.60409,0 v 59.55462 h 27.84106 27.83864 V 922.6578 h -27.83864 v 29.77602 z m 69.60151,0 v 59.55462 l 55.68227,-29.77603 z m 69.60151,0 v 59.55462 h 27.84121 V 922.6578 Z m 41.7603,0 v 59.55462 h 27.84117 V 922.6578 Z m 41.76307,0 27.8386,29.77602 27.841,-29.77602 z m 27.8386,29.77602 -27.8386,29.7786 h 55.6796 z"
       style="fill:#051638;stroke:none;stroke-width:24.0002;stroke-linecap:round;stroke-linejoin:round;paint-order:stroke markers fill"
       id="path2"
       inkscape:label="shape" /></g><g
     id="g2"
     inkscape:label="release_icon"
     transform="matrix(0.26458333,0,0,0.26458333,39.422917,231.51039)"><path
       d="m 61.000004,935.00013 v 10.00001 H 51.000003 v 10 H 41.000002 v 10 h -10 v 10 H 21.000001 v 10 h -10 v 10 H 1.0000002 v 9.99996 10 10 H 11.000001 v 10 h 10 v 10 h 10.000001 v 10 h 10 v 10 h 10.000001 v 10 h 10.000001 v 10 h 10 10.000001 v -10 h 10 v -10 h 10.000005 v -10 h 10 v -10 h 10 v -10 H 131 v -10 h 10 v -10 -10 -9.99996 h -10 v -10 h -9.99999 v -10 h -10 v -10 h -10 v -10 H 91.000005 v -10 h -10 V 935.00013 H 71.000004 Z"
       style="fill:#f5e9ec;fill-opacity:1;stroke:#f5e9ec;stroke-width:20;stroke-linecap:round;stroke-linejoin:round;stroke-dasharray:none;stroke-opacity:1"
       id="path103"
       inkscape:label="outline" /><path
       d="m 61.000004,965.00014 v 10 h 10 10.000001 v -10 H 71.000004 Z m 20.000001,10 v 10 h 10 v -10 z m 10,10 v 10 h 10.000005 v -10 z m 10.000005,10 v 9.99996 h 10 v -9.99996 z m -40.000006,-20 H 51.000003 v 10 h 10.000001 z m -10.000001,10 H 41.000002 v 10 h 10.000001 z m -10.000001,10 h -10 v 9.99996 h 10 z M 1.0000002,1015.0001 v 10 H 11.000001 v -10 z m 10.0000008,10 v 10 h 10 v -10 z m 10,10 v 10 h 10.000001 v -10 z m 10.000001,10 v 10 h 10 v -10 z m 10,10 v 10 h 10.000001 v -10 z m 10.000001,10 v 10 h 10.000001 v -10 z m 10.000001,10 v 10 h 10 10.000001 v -10 H 71.000004 Z m 20.000001,0 h 10 v -10 h -10 z m 10,-10 h 10.000005 v -10 H 91.000005 Z m 10.000005,-10 h 10 v -10 h -10 z m 10,-10 h 10 v -10 h -10 z m 10,-10 H 131 v -10 h -9.99999 z m 9.99999,-10 h 10 v -10 h -10 z m -69.999996,-10 v 10 h 10 10.000001 v -10 H 71.000004 Z"
       style="fill:#960030;stroke-width:1"
       id="path100"
       inkscape:label="shadow" /><path
       d="m 61.000004,995.00014 v 9.99996 10 h 10 10.000001 v -10 -9.99996 H 71.000004 Z"
       style="fill:#e30048;stroke-width:1"
       id="path102"
       inkscape:label="inner_shape" /><path
       d="m 61.000004,935.00013 v 10.00001 H 51.000003 v 10 H 41.000002 v 10 h -10 v 10 H 21.000001 v 10 h -10 v 10 H 1.0000002 v 9.99996 10 H 11.000001 v 10 h 10 v 10 h 10.000001 v 10 h 10 v 10 h 10.000001 v 10 h 10.000001 v 10 h 10 10.000001 v -10 h 10 v -10 h 10.000005 v -10 h 10 v -10 h 10 v -10 H 131 v -10 h 10 v -10 -9.99996 h -10 v -10 h -9.99999 v -10 h -10 v -10 h -10 v -10 H 91.000005 v -10 h -10 V 935.00013 H 71.000004 Z m 0,30.00001 h 10 10.000001 v 10 h 10 v 10 h 10.000005 v 10 h 10 v 9.99996 10 h -10 v 10 H 91.000005 v 10 h -10 v 10 h -10.000001 -10 v -10 H 51.000003 v -10 H 41.000002 v -10 h -10 v -10 -9.99996 h 10 v -10 h 10.000001 v -10 h 10.000001 z"
       style="fill:#e30048;stroke-width:1"
       id="path101"
       inkscape:label="shape" /></g><g
     id="g5"
     inkscape:label="release"
     transform="matrix(0.22048611,0,0,0.22048611,-66.145853,58.208331)"
     style="stroke-width:1.2"><path
       d="m -44.979167,76.729167 c -0.450939,0.0034 -0.893517,0.122098 -1.285709,0.344681 -0.01966,0.01097 -0.04009,0.02059 -0.05943,0.03204 -0.380397,0.225897 -0.698078,0.543578 -0.923975,0.923974 -0.01145,0.01934 -0.02107,0.03977 -0.03204,0.05943 -0.222584,0.392193 -0.341233,0.83477 -0.344682,1.28571 v 13.229167 c 0.0034,0.450938 0.122099,0.893518 0.344682,1.285709 0.01097,0.01966 0.02059,0.04009 0.03204,0.05943 0.225896,0.380396 0.543579,0.698079 0.923975,0.923975 0.01934,0.01145 0.03977,0.02107 0.05943,0.03204 0.183024,0.103873 0.378616,0.180225 0.579293,0.237712 0.03179,0.0093 0.06436,0.01673 0.09663,0.0248 0.199176,0.04888 0.403071,0.08058 0.609782,0.08217 h 108.47865 c 0.451287,-0.0033 0.894249,-0.12193 1.286743,-0.344682 0.01919,-0.01071 0.03899,-0.02035 0.05788,-0.03152 0.381149,-0.226124 0.699401,-0.544376 0.925525,-0.925525 0.01094,-0.01848 0.01999,-0.03807 0.03049,-0.05684 0.106676,-0.187793 0.188732,-0.387458 0.246497,-0.593763 0.0027,-0.0094 0.0057,-0.01846 0.0083,-0.02791 0.05756,-0.214647 0.08834,-0.436426 0.09043,-0.660425 3e-6,-0.0018 5.16e-4,-0.0034 5.16e-4,-0.0052 V 79.375 c 0,-0.179151 -0.01909,-0.353468 -0.05271,-0.522449 -0.210711,-1.045022 -1.028026,-1.861522 -2.073258,-2.071191 -0.168196,-0.0333 -0.341609,-0.05219 -0.519865,-0.05219 z m -0.706416,18.413863 c -0.03159,-0.0092 -0.06501,-0.01397 -0.09612,-0.02429 0.04557,0.01491 0.09117,0.02893 0.13746,0.04134 -0.0144,-0.0039 -0.02701,-0.01295 -0.04134,-0.01705 z m 0.101285,0.02584 c 0.180856,0.04489 0.366561,0.07721 0.561206,0.08061 -0.190252,-0.0046 -0.377581,-0.03588 -0.561206,-0.08061 z"
       style="fill:#f5e9ec;stroke-width:5.29167;stroke-linecap:round;stroke-linejoin:round;stroke-miterlimit:4.4;fill-opacity:1"
       id="path3"
       transform="matrix(4.5354331,0,0,4.5354331,300.00009,-263.99999)"
       inkscape:label="outline" /><path
       d="m 540.00234,96.000003 v 0.0684 c -0.13199,-0.001 -0.26759,-0.003 -0.39958,0 -1.96511,0.0456 -3.88572,0.579611 -5.60134,1.547086 -3.68263,2.159828 -5.94052,6.113701 -5.92942,10.383091 H 528 v 12.00036 12.00035 12.00033 V 156 h 11.99944 11.99944 11.99944 11.99984 11.99944 v -11.99825 h -11.99704 -11.99944 -11.99944 -11.99934 v -12.0007 h 11.99934 11.99944 11.99944 v -12.00034 h -11.99944 -11.99944 -11.99934 v -0.072 -11.93004 h 11.99934 11.99944 11.99944 H 588 V 96.000563 h -11.99944 -11.99944 -11.99944 z"
       style="fill:#001427;stroke-width:12;stroke-linecap:round;stroke-linejoin:round"
       id="path5-0-6-9-0-6"
       inkscape:label="e" /><path
       d="m 467.6022,96.00135 c -1.9716,0.072 -3.8959,0.625909 -5.6016,1.617302 -3.7009,2.147934 -5.978,6.103728 -5.9766,10.382528 H 456 v 11.9997 11.99974 h 12 12 12 12 v 11.9997 H 492 480 468 456 V 156 h 12 12 12 12 12 v -11.99968 -11.9997 -11.99974 h -12 -12 -12 -12 v -11.9997 h 12 12 12 12 V 96.0015 h -12 -12 -12 -12 c -0.132,-0.002 -0.2676,-0.002 -0.3996,0 z"
       style="fill:#001427;stroke-width:1.2"
       id="path24-4-7-6"
       inkscape:label="s" /><path
       d="m 395.6022,96.0015 c -1.9716,0.072 -3.8959,0.625907 -5.6016,1.617297 -3.7009,2.147926 -5.978,6.103753 -5.9766,10.382493 H 384 V 120.001 132.00065 144.00031 156 h 12 v -11.99969 h 12 12 12.0001 V 156 H 444 V 144.00017 132.00051 120.00087 108.00116 96.0015 H 432.0001 420 408 396 c -0.132,-0.002 -0.2676,-0.002 -0.3996,0 z m 0.3996,11.99966 h 12 12 12 v 11.99971 11.99964 h -12.0007 -12 -12 v -11.99964 z"
       style="fill:#001427;stroke-width:1.2"
       id="path17-4-2-3"
       inkscape:label="a" /><path
       d="m 324.00222,95.999997 v 0.0684 c -0.13199,-0.001 -0.26759,-0.003 -0.39958,0 -1.96501,0.0456 -3.88581,0.579611 -5.60123,1.547076 -3.68262,2.159839 -5.94051,6.113727 -5.92941,10.383097 H 312 v 12.00038 12.00033 12.00034 12.00037 h 11.99942 11.99942 11.99942 11.99942 11.99942 V 144.00174 H 360.00058 348.00126 336.00174 324.00232 V 132.0014 h 11.99942 11.99952 11.99932 v -12.00032 h -11.99932 -11.99952 -11.99942 v -0.072 -11.93003 h 11.99942 11.99952 11.99932 H 372 V 96.000927 h -11.99942 -11.99932 -11.99952 z"
       style="fill:#001427;stroke-width:12;stroke-linecap:round;stroke-linejoin:round"
       id="path5-0-6-2-1-2"
       inkscape:label="e" /><path
       d="m 240,96 v 11.99979 11.99973 11.99973 11.99979 c 0,0.13152 0,0.26759 0,0.39911 0.072,1.97151 0.6264,3.8954 1.6173,5.60142 2.14799,3.70084 6.10399,5.97788 10.38288,5.97643 V 156 h 11.99988 12.00008 11.99998 H 300 V 143.99959 H 287.99992 275.99994 263.99996 251.99998 V 131.9998 120.00007 108.00034 96.00055 Z"
       style="fill:#001427;stroke-width:1.2"
       id="path25-3-7-9"
       inkscape:label="l" /><path
       d="m 180.00239,95.999997 v 0.0684 c -0.13199,-0.001 -0.26759,-0.003 -0.39958,0 -1.9652,0.0456 -3.88581,0.579611 -5.60132,1.547076 -3.68262,2.159839 -5.9406,6.113727 -5.9294,10.383097 h -0.072 v 12.00038 12.00033 12.00034 12.00037 h 11.9994 11.9994 11.9994 11.9994 11.9994 v -11.99825 h -11.9964 -11.9994 -11.9994 -11.9994 V 132.0014 h 11.9994 11.9994 11.9994 v -12.00032 h -11.9994 -11.9994 -11.9994 v -0.072 -11.93003 h 11.9994 11.9994 11.9994 11.9994 V 96.000927 h -11.9994 -11.9994 -11.9994 z"
       style="fill:#001427;stroke-width:11.9999;stroke-linecap:round;stroke-linejoin:round"
       id="path5-0-6-26-6"
       inkscape:label="e" /><path
       d="m 96.000086,96 v 11.9999 11.9999 11.99994 23.9998 h 12.000004 v -23.9998 h 24 v 11.9999 h 12 v -11.9999 h 12 V 119.9998 107.9999 c 0,-6.64776 -5.3521,-11.9999 -12,-11.9999 h -36 z m 48.000004,47.99964 v 11.9999 h 12 v -11.9999 z m -36,-35.99974 h 6 18 12 v 11.9999 h -30 -6 z"
       style="fill:#001427;stroke-width:12;stroke-linecap:round;stroke-linejoin:round"
       id="path2-3-2-0"
       inkscape:label="r" /></g></svg>
